<svg xmlns="http://www.w3.org/2000/svg" width="500" height="230"><path fill="#ED8A8A" d="M33.502 181.448l-8.538-5.679-3.547-5.125-8.936-12.332-1.314-3.881-2.496-5.811-4.861-16.065-1.71-9.146-.522-3.739-1.05-3.32v-4.852l-.528-3.738v-20.915l3.023-23.549 1.574-3.322.789-6.095 2.759-6.789 1.052-4.29 2.496-5.402 2.103-3.742 3.02-6.372 5.653-7.063 1.444-2.076 5.125-5.403 3.019-2.077 6.175-5.123 4.597-1.389 7.62-2.629h7.095l4.336-1.524 4.862 2.078 7.093.97 5.124 2.218 2.235.828 1.838 1.8v4.848l-2.891 6.098-.917 4.569-2.366 4.983-.528 3.604-1.968 2.768-1.446 2.222h-1.578l-6.83-3.605-6.308-.829-4.729 1.662-2.891.832-1.968 3.324-3.681 1.387-1.575 4.292-3.024 2.077-.787 4.987-3.023 3.183-2.891 12.189-2.101 6.375-.527 7.062-.393 1.523-1.05 13.986v18.833l1.445 6.375.527 4.849.525 1.662 2.102 7.479 3.155 6.783 8.145 10.804 4.205 2.082 7.093.83 12.483-6.506h2.759l3.942 6.918 1.968 5.683 3.418 4.983.655 2.22 1.709 4.436-.92 2.073-2.364 1.531-4.729 4.429-4.599 2.493-6.699 1.386-4.34 2.213-4.597-.967-3.942 1.107-7.75-1.389-10.249-4.29zm25.096 3.046l3.547-1.525 7.225-1.105 5.125-3.043 4.464-3.887 1.974-1.657v-1.666l-1.974-4.291-.522-1.526-2.89-4.853-1.842-5.264-2.757-4.7-3.94.97-2.368 2.485 1.054 1.107h2.495l3.286 2.637 1.972 4.154 2.362 1.662.524 1.801-.918 1.111-1.578-1.111-.521-1.108-2.108-1.53.659-1.103-1.05.563-3.023-1.675v-2.628l-1.444.693-1.183-1.246h-.526v-2.221h-3.545l-3.022 1.111h-7.622l-3.546-1.249-3.809-2.628-6.439-9-3.546-7.482-3.021-9.142-1.05-2.77v-4.71l-.924-3.048-.655-5.674-.528-2.082v-12.879l1.056-3.186v-11.356l1.574-4.847v-4.713l1.445-4.844.527-2.218 1.578-4.846 1.972-7.343 2.493-2.768.791-4.85 3.151-2.214 1.709-3.744h-1.972l-1.575.835 1.05 1.798-.526.555h-1.97l-.658 2.079-6.043-4.709-1.972-2.216-9.197-7.48 1.054-1.109-.791-1.383 4.338-.97 4.729 4.016h1.311v-.832l-4.99-3.598v-2.495l1.972-2.216h1.052l1.966 2.768 3.681 3.74 9.328 6.652-.787 2.493v1.245l3.677-1.803 1.313-1.523-3.415-1.799-3.547-3.742-2.496-2.078-1.577-1.659-2.496-1.526-2.102-1.66-3.023-2.218.528-.415v-1.108l.523-1.107-.523-1.109h3.414l4.205 3.74 1.446 1.11 2.627 2.216 3.021 2.078 1.445 1.523 4.732 2.77.787.83-3.679 2.631 5.52-.968 3.283-2.771-4.994-.831-1.445-1.524-3.149-2.77-5.52-5.817-.787-1.523-1.84-.693-1.446-1.521-1.051.55h-.79l.79-1.659-1.97-2.079-7.093 4.572-3.155 4.987-5.125 5.953-8.671 17.729-.393 2.077-1.577 4.847-.526 2.772-1.312 2.771-.657 3.6-1.052 4.294-.533 4.294-1.314 5.398-.787 11.223-.919 3.186.523 3.322v14.961l1.183 4.152 3.286 2.91 1.576.414 1.052 1.113 4.073 3.732 1.97 2.216 2.104 1.111 4.597 3.74.918.55.526.558 5.125 4.298.787 2.351 3.286 3.459v2.358l-2.89-1.111-.655-1.247-2.108-1.104v-2.078h-1.443v-.555l-3.019-1.108-5.653-5.82h-.525v-.55h-1.576l-2.496-2.77-1.578-.413-.393-.558-3.153-2.216h-.656l-1.315-2.081-1.05-1.102-1.05-3.188.522-.559-.522-.55-.791 1.667 2.103 6.645 1.313 1.385v.558h-1.051v.413l2.891.694.657 1.521 2.104 1.104 1.97 2.085 3.547 2.213 1.05.97 1.054.553 3.021 2.771 5.518 3.882 2.366 3.735 11.428 9.558 3.547 3.742 3.153 1.104.396.416 2.1.555 2.366 1.246-1.183 1.247 8.016 6.648 1.183-1.246 1.839 1.246 1.05.555v1.114l-2.104-1.114h-.526l2.105 2.222h2.494l8.806 6.922h-2.629l-.526.555-2.103 1.108h-1.445l-3.547-3.879v-.83l-2.101-.693-1.97-2.219-1.58-.964-2.101-2.222h-.919l-1.051-1.105-1.578-.555-1.707-1.804-3.811-2.497-2.101-2.078-1.972-1.104-2.364-2.351-2.233-.835-2.625-1.801-3.158-4.432-2.364-1.245-.521-.552-1.052-.562-1.056-1.108h-.388l-1.578-1.515-1.58-.559-2.494-2.771-1.58-.974v-1.1l1.051-1.112-1.183-.693-1.836.693-3.024-2.073-.524-.558-1.577-1.108-3.021-3.186-1.578-.55-1.05-1.108v-3.744l-1.446-1.662v4.302l1.839 5.948 6.833 5.401 4.992 2.635 1.183 2.49 1.446.695 9.587 8.585 1.579 1.661 2.499 1.662 3.151 2.628 8.671 6.934.396.551 4.071 3.186 1.052 1.111 5.121 3.743 3.021 2.764 1.58.97v1.11l-1.051.555-1.709 1.246-2.367-1.246-4.595-4.852-2.628-1.382-3.418-2.908-2.101-1.111v-1.517l-1.05.551-3.547-2.22-2.498-2.078-4.598-3.328-5.653-5.811-3.018-2.219-.528-.967-4.332-2.354-2.237-3.609h-.918l-3.679-3.182h-.917l-.659-2.771-1.444-1.523.527-.55-2.629-3.463v.971l2.102 5.677 2.103 6.784 2.496 3.463v-2.217h.919l9.198 7.063 3.546 3.739 3.153 2.083.393.55 5.127 3.74 3.547 3.186 12.875 10.11-2.627.831-2.627-.688h-1.446v-.555h-1.052l-3.155-.834-.918-1.797-1.97-1.107-4.599-3.741v-1.664h-1.576l-1.579-.964-.917-2.222h-.528l-1.968-1.383-1.05-2.354-1.315 1.384-1.842-1.942-1.968-1.666-.526-.403-1.58-.839-1.442-2.493-2.104-2.075-.525-1.669-.526-.55v2.219l.789 2.214 2.891 3.597 4.075 6.236 4.462 3.051.528-1.104 2.101 2.075 1.052.553 5.52 3.879v1.385l-1.972-1.522-3.548-1.801v.695l1.446 1.658 6.175 3.186 9.067 3.186h11.298zm-32.584-59.561l-.527-.553h-2.233l-8.539-6.926-1.97-2.218-2.104-.973-1.444-1.658-4.73-3.601-1.184-2.355.791-1.523.524-1.659 1.052.552h1.838l3.153 2.629v.559h-.393v1.658h1.97l1.052-.552-.789 1.523 8.936 7.617 1.968 2.216 2.102.969.527 1.109 1.972 2.219-1.314.555 1.314 2.073-.527.555-2.102-1.527.657-.689zm-2.629-22.575l-1.181.69-1.841-.69-1.051-.972-3.021-2.212-.524-1.11-2.364-1.108.918-.972v-.554l-1.181.554-2.498-1.66h-.393v-2.08h1.97l.526 1.111h.526l1.97 1.384v-1.941l-4.466-2.35-.526 1.244h-.525l-.527.552h-1.445l-1.577-2.768-1.052-.415v-1.108l-1.313-2.08 1.446-3.047 8.014 6.235 1.05.969 6.571 5.4 3.546 3.744-2.891.55 1.838 1.109 2.102 2.078v1.108l-.522.554-.527 1.106-1.052-1.106v-2.215zm-.917 10.802l-1.051-.554-3.547-2.631-1.054-.554v-1.66l-.785.831-5.782-4.571-5.125-5.403v-1.522l1.315-.691-1.841-2.078 2.365-.693 10.382 8.727.526.554 4.599 3.599v.697l-3.681-2.22v1.247l5.649 4.713v4.289l-1.97-2.08zm-2.105-20.361l-1.575-1.662-1.444-.55v-.557l-2.104-.969-6.569-5.404-3.548-3.737.526-.558.526-1.106.657-.691-.922-1.941h1.709l1.578 1.527 1.97 1.104 6.703 5.402 1.442 1.11 1.051.968 4.602 3.876v2.081l-.527 1.663v3.182l-3.02-3.182-1.055-.556zm-10.115-2.491v-1.526l-4.599-2.908 1.312 2.77 3.287 1.664zm7.622-8.312l-6.177-5.399-1.969-2.08-3.155-1.659v-1.527h1.05l.526.552h1.315l2.759 2.08 3.022 2.214 4.468 3.743h1.183v-1.249l-5.125-3.603-6.569-7.06h.527l5.516 4.293 1.575.556v-.834l-7.619-6.23v-3.605l13.271 10.115h1.444v-1.107l-4.601-3.604-6.567-6.51-1.444-.69-.659-1.943-1.313-1.523 2.104-.691-1.184-2.631h.919l2.103 1.521 4.466 2.908 5.123 4.709 5.127 4.157v4.431l-1.444 1.527-1.578.553.522 1.106.527 1.661.528.975v2.21l-.528.558-1.05 2.076-.659.694 1.709 2.494-1.05 2.214-4.073-2.214-3.02-3.188zm-9.725 16.621v-.968h-1.05l1.05.968zm.526-18.697h.526v-1.11h-1.052l.526 1.11zm2.496 1.523h.526v-.555h-1.052l.526.555zm9.724-23.546l-1.58-1.11-.524-.552-7.095-4.986v-1.386l2.103-.694v-1.526l-.525-1.106h1.97l1.575 1.663 2.364 1.248 1.183 2.489h1.054l3.02 2.218.527.554 5.124 4.018v1.247l-1.578 1.662v3.046l-3.023-1.94-4.595-4.845zm-7.621 25.205h.525v-.552h-1.051l.526.552zm14.716-28.393l-2.499-2.212h-1.05v-2.634l-1.313.692-2.233-2.355v-1.109h-1.58l-1.441-1.521-.526-2.218-1.841 1.247-.789-2.771 1.576-1.662h.525v-2.076l13.535 10.94 2.759 2.907-.526 1.112.787 1.66-1.838.968v1.11l-.527.556-.654-1.527-2.365-1.107zm-11.171 31.582h.789l-1.314-2.079h-1.576v1.383l2.101.696zm15.768-36.981l-1.051-1.11-7.619-5.4-3.021-3.186-.528-1.11-2.101-.692-.918-1.938 1.968-1.111v-2.074l-.524-1.11h1.575l3.022 3.184 2.629 1.663 7.095 5.818 4.336 4.572-3.021 3.325-.791-.831h-1.051zm-13.795 5.815l1.051-.416h.524v-.554l-1.051-.552-.918 1.106.394.416zm2.103 44.049l1.05-.558-3.153-2.354v1.525l2.103 1.387zm-1.579-10.112h.527v-.557l-.527.557zm3.156 1.525v-1.111h-1.577l-.528.554h1.054l1.051.557zm.391-9.144h.526l-.917-.97h-1.577l1.968.97zm.526-2.633h.528v-.554h-.528v.554zm.528-8.586h.524l-.524-.554v.554zm.524 38.09v.552l-.524-.552h.524zm.527 6.922h.522l1.055 1.113v.549h-.528l-1.05-1.104v-.558zm45.326-81.024h1.576l1.315-1.385 3.942-10.249.787-3.881 3.023-6.508v-2.215l-4.992-3.601-8.149-2.219-4.989-1.66-1.709 1.106h-8.149l-5.123 1.106-9.063 3.188-3.153 3.324v.414h3.547l4.205 2.22 10.64 9.141 3.546 2.633 4.076 4.293-.526.554 5.518 1.107 3.678 2.632zm-32.058 2.772h.526l-.526-.559v.559zm29.036-6.512l-3.155-2.633 1.052-.555v-.554h-1.052l-.655.835-4.992-5.264-1.448.69-1.575-1.661-.393-1.525h-1.577l-4.073-3.598 1.579-.698-2.105-.691v-3.602l-1.97-1.107h-4.074l1.972-1.106v-1.8l2.102.691.396 1.11h2.1v1.662h1.579l4.465 3.739 1.575 1.106 2.498 2.635 6.832 4.987 1.839 1.938.789 1.661h1.577l1.446 3.05-2.234 2.351-.524-.552-1.974-1.109zm-23.518 147.651h1.051l-1.051-.553v.553zm5.649-164.826h1.05v-1.108l-1.05 1.108zm3.024 148.202l.521.553h-.521l-.528-.553h.528zm6.701-147.648l-.526-.554.526-.556-2.629-.552v-.558l1.841-.966-1.317-.555-1.05-1.106-.656 1.521-2.89-2.077v-.554l2.101 1.11.526-.555.918-.555-.525-.967-1.315.692-1.705-2.353h3.545l6.701 5.399.525.966h.918v1.389l-2.493-1.389h-1.054v.558l2.368 2.629.655-1.521.524.554-.918 1.659h-3.414l-.656-1.659zm13.662 161.083l-3.021-3.323-2.496-1.239-3.679-4.578v-2.774l-.919-.967-1.05-.553-1.054-1.108v2.225h-1.968l-3.024-3.193 3.155-2.07 3.94 3.039 1.443 1.108 1.052 1.116 1.052.403 1.051 1.116 3.811 2.77h1.179l1.71 3.598 3.417 1.663v1.664l-3.021 1.659v-1.385l-1.578.829zm-3.283-151.387l-.792-1.665 2.104-.69v-1.939h-1.051v1.524h-.789l-.789-1.524h-2.495v-2.215l-.527-.557-.526.557h-2.494l.524-.557h.919l.92-1.798 2.759.969-.526-1.248h1.05l1.972 2.077v1.939l1.575-.83 2.496 2.216v.415h-.521v.557h2.627v2.214l-1.577 1.523h-1.578l-.92-.968h-2.361zm3.811-8.588h-.528l-.527.55h-1.443l-1.051-2.212-2.365-1.245-1.052-2.079-1.183.691v-1.104l-1.97-2.223h-.525v-.964l.659-.693-.92-1.941 5.779 2.082 3.152 3.183.919 1.662 1.056.552.521.414 2.892 1.248.787 3.329-.918 1.937h-1.711l-1.571-1.665v-1.522zm-7.097-1.108h-1.052v-.554l1.052.554zm-1.052 151.392l.527-.559v-.55l-.527.55v.559zm8.149-157.349v-.557h2.627l1.444 1.666.524 1.106 1.316 1.942-2.894-1.387-3.017-2.77z"/><path fill="#A7D5A8" d="M99.194 186.569l-1.974-2.075v-9.145l-.785-3.459.918-4.017-.786-8.175 1.051-9.696-1.183-4.706.785-4.163-.785-8.167 1.183-9.138-1.183-5.126.785-3.742-.653-8.59 1.051-9.553-1.183-4.573.785-4.291-.785-8.17 1.183-9.144-1.183-4.711.785-4.154-.653-8.449 1.051-9.693-1.183-4.577.785-4.293-.785-8.168 1.183-9.142-1.183-4.846.785-4.296v-5.262l1.448-1.664 23.517-.83 3.155 1.66.918 2.909v9.142l.525 3.325-.525 2.631v20.363l.525 3.876-.525 2.495v20.501l.525 3.461-1.051 4.292 1.183 4.575h33.37l.658-19.532-.658-2.771.658-23.548-.658-3.323.658-23.133-.787-3.739 1.183-1.245 1.576-.554 3.285-1.385 20.365.83 2.364 1.664.92 2.632v177.149l-1.184 3.74h-5.386l-13.009.557-7.488-.557-1.969-2.075v-18.289l-.528-2.49.658-23.542-.658-3.324.658-24.797-1.05-1.104h-33.635v9.552l.525 3.329-.525 2.628v20.356l.525 3.882-.525 2.631v20.362l.525 3.604-.525 2.355-.655 6.233-4.468 1.245h-8.147l-3.547-.557h-10.247zm13.141-1.243l1.705-.832-2.627-.553-.395-.555h-2.103l-1.574-.558h-1.974v-1.657h-1.576l-1.448-.697v-3.601l.924-.547-1.446-2.085v-1.104h.92l4.205 3.736.918.557 2.89 2.217-.787 1.524 1.708-.836 4.466 4.158h7.093l.792-.969-1.052-4.154 1.97-3.044-.787-3.744v-14.962l-1.314-4.295 2.101-3.735-.787-3.744v-14.539l-1.052-4.713 1.705-3.739-.653-3.325v-10.801h15.368l8.148-.554 14.059.554 1.182 5.399v20.361l-.789 2.497.789 4.013v19.804l-.789 2.496.789 4.02v15.51l.787 1.665h19.578l3.02.421 1.054-.421v-3.322l.918-4.707-1.183-5.127.791-2.494v-10.115l-.658-3.327.92-4.844-.92-5.954.658-2.639v-9.553l-.526-3.598.789-5.262-.92-5.817.658-2.499v-9.141l-.658-3.462 1.05-5.677-1.183-4.848.791-3.186v-9.696l-.526-3.463.789-5.402-.92-5.679.658-2.63v-9.696l-.658-3.188.92-4.984-.92-5.818.658-2.63v-9.695l-.658-3.464 1.05-5.404-1.05-5.122.658-2.633v-3.738l-.658-2.08-14.713-.688-9.595 1.106-.658.688.658 3.051v20.498l-.92 1.802.92 4.571v19.945l-.789 2.353.789 4.016v19.947l-.789.83-15.764.831-3.814-.692h-17.865l-.524-4.292-1.052-4.016 1.705-3.74-.653-3.462v-15.099l-1.052-4.02 1.705-3.737-.653-4.015v-15.517l-1.446-3.045-.527 3.045h-1.05l-7.621-5.954-4.073-3.741-8.147-6.646v-.831h1.05l.53.55.394-1.658h2.626l4.075 2.077 4.071 3.322 1.446.974 6.175 4.846v2.216l1.051 1.106 2.233-3.322-.787-3.74-.527-9.141-1.05-1.106-5.52.55h-16.817l-1.05 1.108v4.711l2.1.693 2.498 2.079 1.576 1.106 3.024 2.768 5.648 4.294.526.418 5.52 4.845.524 2.218 1.838 1.801-.916.969.653 2.078-1.312.693-3.548-2.771-.789-1.663-2.496-1.383v-.831l-2.101-.692v-.97h-.92l-.524-.417-1.053-.554-7.097-5.954-2.757-5.677.658-1.251-.658-.691-1.312 2.633 1.312 5.538h1.185l1.05 1.108 1.052.554.394.418 6.701 5.403 1.97 2.213 2.364 1.107 5.254 4.711 1.052.555.922 1.938-3.813-2.77.92 1.941 2.496 1.936v1.804l.526 1.107v2.077h-1.052l-3.021-3.184.786-1.666-2.627.831-1.708-1.798-2.888-2.353-.657-1.387-2.364-.833-2.236-2.491-1.052-.554v-1.524l.526-.554h-1.05l-.526.554h-.787l-.661-1.66-.522-.558-.527-.969-1.576-1.66-.524 3.188v6.508l.787 2.353-1.578 5.129.791 3.737v19.945l-.791 2.632.791 4.294v19.809l-.791 2.77.791 3.738v19.805l-.791 2.631 1.315 7.064.526.554-1.05 1.104v15.516l-.791 2.637.791 4.29.524 3.874 2.103.97-.527 1.114-1.576-1.114-.524 3.742v10.809l-.791 2.631.791 4.291.524 6.513 1.053 1.107h1.05l-1.577-1.665h1.841l.789 1.665h4.468l4.991.829zm-9.067-118.426v-.554l-1.974-1.11.527-1.106-1.312-1.942.785-.689v-.556l.527-.55 1.97 2.213 2.102 1.109 1.053 1.521v.557l-1.58-.833v.833l1.974 1.384.655-1.802 1.972 2.081v.553h.526v3.186h-2.103l-1.97-1.109-3.152-3.186zm13.268 106.788l-13.925-11.777-.79-1.654-1.312-1.944 1.446-1.385 1.706.832-.787-1.806h.394l4.074 3.189 1.574 1.113 1.579 1.654h-.526l-2.627-1.654v.827l3.677 2.773v-1.389h.395l.526.55 2.627 1.527.658 1.524-2.496-1.386 1.97 3.052h1.577l-.789-1.531h.526l2.102 1.531 1.05 1.657h.922l2.627 2.635v1.109l-.527.551-.524 1.661 1.051 1.524v1.526l-3.155-2.493-3.023-2.216zm-6.568-54.158l-1.577-1.104-2.498-2.217-2.102-.974-3.02-3.324v-.965h1.313l-1.444-4.852h1.444l4.862 4.292 4.466 3.741 3.679 3.186.92.555 2.102 2.213v.973l-1.578-.555-2.756-2.904-3.811-2.359-2.103-2.214h-.918v1.107l1.444 1.107 5.519 5.127-2.104 1.107-1.838-1.94zm5.518-72.02l-1.972-2.079-3.02-1.663-.526-.554-2.103-1.526-.524-.551-1.448-1.106-4.861-5.129.922-.97-1.183-1.938v-3.74l9.197 7.482 1.97 2.63h-.92l-3.153-3.188h-.918l.395 1.11 11.822 10.111 2.498 2.216-1.052 1.11.526 1.104v.972h-1.05l-2.498-2.634-2.102-1.657zm-14.715-8.033v-.834l2.496 1.389v1.106l-.394.551-.53-1.105-1.572-1.107zm15.241 18.42v-.692l1.312-1.389-1.838-1.797h-1.446l1.972 2.08-.659.689-2.364-1.247-1.05-.967-1.444-1.108-2.892-2.909-2.235-.829-4.596-4.851v-1.524l2.496 1.938v-2.629l2.1 1.108 3.024 3.186 4.073 3.324 2.101 2.078 1.446.829 5.124 4.434v.691l-1.182.556 1.182 2.632h-1.05l-1.972-2.081-2.102-1.522zm22.598 48.614l-2.233-1.523-1.974-1.106-1.048-1.108-3.023-1.526-2.626-2.768-4.994-3.186-3.549-3.739-1.576-2.078-3.022-1.66-2.627-2.633-2.101-.833-1.972-3.045-3.024-3.186-2.756-1.385-1.313-2.91v-1.108h1.05l.522.556h.924l-.924-.969v-1.664l2.498 2.075 3.024 2.218 9.723 8.032 3.547 2.629 4.073 3.882 1.575.972 4.598 3.737 4.995 3.878.524.415 2.102 1.662 3.545 3.188 1.448 1.106 2.102 2.214-3.024.971h1.976l-6.44-1.108zm-22.598.138l-9.328-7.202-5.912-6.229v-1.664h2.496l3.153 1.664.655 1.381 1.315.694.524.555 1.053.555.526.554v-1.803l-3.547-2.771v-.827h.395v-.554l-5.256-5.541-.791-2.495.527-1.661h1.052l3.02 2.771 1.053.553 6.042 4.294 2.759 1.385 1.314 2.91 2.496 2.63 1.052.555.526.554 9.72 8.031 1.974 1.108-.526.554h-6.045l-1.576-1.662-1.448-1.106-5.911-5.126-.789.833-1.97 1.385 8.279 7.062-.791.831.659 2.082-.527.415-4.597-3.188-1.576-1.527zm1.576 34.351l-.92-.966-.92 1.931h-.655l-2.104-1.381v-1.247l1.051-1.108-1.051-.968h-1.05l-.526 1.522-1.972-1.104v-2.636l-1.838-1.384.789 1.936-.658.696-1.312-.696-.527-1.104-2.367-1.251.791-.827h-1.444l-1.052-1.104v-1.666l-1.05-2.076 1.839-1.243 3.283 2.346 1.972 2.083 8.67 6.928 1.052.55 1.969 1.664 1.841 1.241.787 2.497v1.108l-1.576-1.658-3.022-2.083zm-16.294-.555l.527-.553v-1.109l-1.05-1.104v-.418h2.102l.918.968 2.102 1.108v1.663h2.103l3.416 2.631v.555h-.918l-.657 2.082h-1.446l-3.811-2.359-3.286-3.464zm4.6 33.797l-.526-1.104h-.787l-.789-1.527-1.448-.827v-3.464l-1.05-.557-.522-1.104 1.183-1.251 7.486 5.545 1.053 1.111 1.97.965.524.555 3.023 2.214 2.627 2.634 3.546 2.493v2.348l-.524.558-.526 1.112-1.578-.555h-1.443l-2.628-1.385-9.591-7.761zm11.694-39.752h-1.576l-3.023-3.183v-1.111l-1.97-.555-.524-.974-2.232-.83-.92-1.936h-2.368l-1.706-2.631-1.313-.689-.661-1.527.527-.555.522-1.522-1.442-2.216h2.625l5.914 5.396 11.168 9.149v1.659l-.524.412v1.664l1.576 1.666.524 1.52-.524.555-3.287-2.492-.786-1.8zm-.526 30.056l-1.97-2.077-4.598-3.74-5.127-5.402-2.494-1.38v-1.389l-1.841-2.768 1.841-1.943 1.968 2.078h-1.05v1.107l3.417 2.355.789-.97 1.972.696v1.101l-.527.559v.83l1.71-.97 2.888 2.216 3.022 1.94v.831l-1.838.555.789.968 2.102 1.113v-1.806l2.101 1.112 1.446 2.905v.55l.524.974v3.327h-1.05l-1.972-1.661-2.102-1.111zm1.052-47.232l-4.074-3.186-2.627-2.766-1.444-.975-.527-.551-1.05-.555-1.05-1.106h-.658l-4.862-3.879v-.967l.522-.556v-1.526h.924l1.05 1.111h1.05v-1.111l-3.023-1.66v-2.077l7.097 5.263 1.053 1.108 10.245 8.447-.918 1.112-3.809-2.913v1.384l3.152 2.216 2.498 2.633-.658 1.526 1.182 1.242v.833l-3.021-1.937-1.052-1.11zm-1.578-50.414l-2.625-.691-2.892-3.047-1.705-.975-1.051-2.074-3.42-1.803-1.05-1.106-1.707-.552.789-2.08.653-.693-.653-1.523v-1.107l3.547 3.876h.526l.656 2.772 1.312 1.521h1.053v-1.107l1.444.556 1.052 2.076-.789.833 1.838 1.939 1.972.969 1.576 1.109h1.052l-2.102-2.078v-.832l3.152 1.524v1.386h-.524l-.525.554.525 1.109.524 1.522.922.552-.659.694-1.708-.833-1.183-2.491zm-11.695 56.929h3.024l-.524-1.107-2.368-1.801-1.05 1.104.918 1.804zm-.524-69.256h.524l-.524-.554v.554zm0 1.525l.524-.558h-.524v.558zm0 58.031h.524v-.553l-.524.553zm2.104-79.501l-1.054-1.11v1.11h1.054zm0 114.404l.526.559h-.526l-.527-.559h.527zm6.567-20.218v-.699l-3.02-3.321h-.527v1.663l1.053.554.918 1.104 1.576.699zm6.176-47.925l-2.102-2.217-1.05-.552-1.446-2.078-2.364-.833-1.972-2.077.789-1.383 1.97.552.526.969h1.972l-1.972-2.631h.525l2.496 2.075 2.104 1.526v.692h-1.578l4.6 4.851v1.521h-1.052l-.524-.416h-.922zm-8.67-20.497h.918l-.395-.556h-.524v.556zm1.97-53.604v-.556l-1.052-1.663h2.102l4.6 1.663 2.366.556.656 2.077 1.183 1.8-.657 1.387-2.104 1.106h.528l-3.024-1.527-4.598-4.843zm5.124 147.644l-2.628-2.217-1.972-2.624-1.576-.831v-1.946l1.576.559 1.314-1.386.789.827-.526.559v.827l1.842-.968 3.149 3.326h-1.443l4.599 4.844-1.314.699 1.184 2.351-3.418-2.497-1.576-1.523zm-5.124-84.902l.524.555h-.524l-.526-.555h.526zm0 85.871v-.552h-.526l.526.552zm.524-116.482l.526.558h-.526l-.524-.558h.524zm4.074-4.846l.526-.556-1.052-.414-3.021-2.219v1.109l1.578 1.523 1.969.557zm0 90.721l-1.05-.414-.92-1.108h-.526l-1.051-1.113.525-.55.658.689 1.314-.689.524 1.113 1.052.55 1.576 1.108.657-.827-1.446-1.667 1.052-1.104 2.759 3.599h-2.1l.653 1.942-1.182 1.243-2.496-1.801v-.971zm-2.497-84.762l1.446 1.657h-.526l-1.446-1.657h.526zm-.525 56.925h.526l-.526-.554v.554zm2.234 47.229l.787-1.657 3.024 1.935v.834h-1.446l-1.578-1.111h-.787zm.262 34.354h.526l-.526-.558v.558zm3.549-103.053v.555h-.528l-.394-.555h.922zm.524-8.587h-1.052l.528-.554.524.554zm.526 36.429l-1.05.552h-.528l1.052-.552h.526zm.263 47.785l.787 1.659h-.524l-1.576-1.659h1.313zm-.263-46.678v.552h-.526v-.552h.526zm0 41.832v.546h-.526v-.546h.526zm1.577-40.725l.522.552h-.522l-.527-.552h.527zm24.435-2.77l-.526-.415-2.1-1.111-1.448-1.66-1.574-.554-1.974-2.077-2.625-1.663-6.045-5.405-6.173-3.18v-1.525h2.625l.661-1.525 4.596 1.803.791.69 1.048.558 1.448 1.659 1.05.556 2.625 2.078 3.418 2.492 1.577 3.463 1.576 1.523 1.577 1.108.393.554 1.052.554 8.015 6.374h-5.39l-2.1-2.081-2.497-2.216zm-13.792-5.263v-.554l-1.974-1.663v1.109l1.974 1.108zm8.145-9.143l-2.498-2.077v-1.662l-.655-1.389 2.101.836.526 1.107h1.05l3.026 3.184h.521l5.124 4.015v1.804h-1.575l-4.07-2.078-3.55-3.74zm1.574 17.176v-.556h-.526l.526.556zm30.486.553l-1.71-1.939.787-.827h-1.572v-2.082h-2.499l-1.576-1.66h-1.05l-1.974-2.078-.526-1.107-1.838-.972-3.809-3.322v-1.107l1.05-.552h-3.024v-.56l1.183-1.245-2.496.833-1.184-2.354-1.577-.972-1.05-.967h3.552l1.968 2.078 4.071 2.216 2.105 2.078 3.547 3.045.524 1.249 5.914 3.599 2.759 2.911 1.05 1.523h1.182l6.963 5.677v5.125h-.526l-6.173-6.508-4.071-2.082zm9.194 16.626l-1.051-.563-.524-1.104-3.023-1.524-3.546-3.32-.527-.974h-1.05l-1.446-1.661-3.021-2.628-1.052-1.111-3.021-2.217v-.971l-.526-.554-1.05.554-.524-.554-1.577-1.108-.528-1.106-1.444-.552-3.548-3.741-1.576-3.185-.526-.555h1.054l1.571 1.662 3.024.969 3.023 3.325 4.073 2.077 5.125 5.4 1.572 1.106 1.974 1.524 6.173 4.297 5.518 5.948v1.671h-2.496l-1.051-1.105zm-1.051-20.364l-.92-.554-.523-.557-1.576-.829v-.831l-.527-1.108-1.446.828-1.05-2.351-2.367-1.803-1.707-2.493h-1.576l-2.628-2.909.789-1.798-1.708.969-.524-.556h-.526v-1.659l-1.448 1.108-.918-4.294h.918l8.671 6.366 1.974 2.22 8.8 6.785.92 1.802 1.97 2.078h-1.444l-.656 1.247-2.498-1.661zm0 30.609l-2.496-2.216-1.051-1.659-2.233-1.526-.787-1.663-2.759-1.381-7.491-6.375v-.832l-1.183-2.492 1.183-.693.527-1.107 3.807 3.328 1.844.965.786-.827 2.496 3.876 3.286 2.358 3.151 3.181 2.892.836.656 1.377v2.081l.526 2.216-.656 1.801-1.972-1.246h-.526zm1.577-39.196l-1.578-1.11h-.524l-.919-1.106-1.576-.833-1.709-2.768.785-.832-2.1-1.248v1.387h-.524l-.526-.552-1.577-1.114-1.446-1.519-1.706-.554.917-2.218h-.787l-1.051.553-.92-.969-2.1-1.527v-2.351l-1.974-2.078.526-.554h.922l.526.554 4.598 3.738.527 1.112 1.048.551 7.095 5.26 1.576 1.666 4.074 2.908v1.939l-.656.69.785 1.941h-1.705v-.966zm-5.125 48.757l-1.05-.563-7.619-6.37-1.183-2.075 4.073 2.213 1.05-1.104-4.468-2.216h-.92v1.388l-3.153-2.353v-1.251l1.053-.962-1.974-2.777 1.448-.555.526-1.108 2.1 2.217 2.498 1.385v-1.246l-6.045-4.852v-1.377l4.729 3.185 2.892 2.905 3.023 2.081 10.115 9.003v1.242h-.394l-.526-.554-2.102-1.104v.55l1.576 1.664.526 2.072 1.97 2.221-2.496 1.111.526.55v1.662l-6.175-4.982zm2.104 29.5h-1.052l-3.021-3.185-3.153-2.081-.92-1.104-2.102-1.523v-1.116l-1.051.419-3.546-3.738v-.828l3.546 2.213v-1.385l-1.446-1.523-3.547-2.909v-.835l.526-.547.525-1.251 4.47 3.32 2.1 2.222 6.045 4.293 2.628 2.635 6.041 4.571v2.908l-1.314 1.521 1.054 2.224h-1.709l-4.074-4.301zm-3.154-98.757l-5.52-5.263-3.021-2.216-3.679-3.74 1.053-.555v-2.081l-.659-2.213h1.315l6.173 4.848h1.842l-7.752-6.375-2.627-3.6.656-.829v-2.08l6.178 3.742h1.048l-5.649-5.956h-1.183l-.789-2.632.656-1.387-.656-1.247v-1.657h1.448l2.1 2.073 1.972 1.11 6.57 5.402h2.627l-1.576-1.662-6.045-5.266-3.021-3.322-1.576-2.078-1.181.555-1.054-3.327h1.709l1.05.556h1.052l-3.152-3.188v-1.103l2.1 1.662 3.024 2.075 1.05 1.11 3.023 1.662 3.021 3.188 2.628 2.212.919.972 3.281 1.799.791 2.495v2.214l1.05 2.08v1.107h-1.707l-4.074-3.188h-1.312l1.052 2.08 4.991 5.403-1.183.691 1.709 2.493-1.973 2.216-.523-1.111-2.102-2.076h-1.972l-1.576-1.662-1.446-.552v.552l2.498 2.213.524.419 7.621 7.063-3.153 3.324.656 1.526v6.37h-1.05l-.526-.554-5.65-4.292zm-.396 76.87l-1.05-.55v-1.111l-2.498-.832-.526-1.38h-1.05l-1.05-.971-4.729-3.332-1.316-3.736.656-.687-.917-1.81 1.97-1.104 14.979 12.186.524.559 3.547 2.769v4.291l-.92 1.522h-1.05l-6.175-4.84-.395-.974zm4.994-110.664l-1.97-1.11-4.597-4.85v-.967h-.526l-.527.968-.656-1.939.656-.693h1.577l-3.547-3.737h-1.048v.554l1.048 1.106v2.91l-7.227-5.677v-1.11l2.103-.417-1.05-1.66v-.553h-1.577l.524-2.635 1.577 1.526 1.576.969 5.521 4.433 7.619 5.4 4.729 4.99-.657 2.493-.523 3.045-2.499-1.938-.526-1.108zm-17.212 129.639v-1.38h1.448l4.071 3.327v-1.67l-2.498-2.074-1.574-.834v-3.732l5.125 4.566 1.572 1.524 3.023 2.22 1.05.965.922.555 1.052 1.105 7.094 5.27v1.659h-3.022v.555l1.576 1.657h-2.627l-2.89-.966-14.322-12.747zm0 3.467h.395l1.577 1.659 2.757 2.085h-1.708l-3.021-2.357v-1.387zm16.948-89.061l-4.334-3.739v-.557l-1.446.557v-.557l-2.759-.693-1.051-1.247.918-.973-1.181-1.381-2.1-1.109v1.109l1.05 1.108h-.789l-2.759-2.079-2.103-2.768v-2.217l.527-.554v-2.356l2.625 1.388 4.598 3.739 3.549 2.629.92 1.109 8.407 6.924.787 1.665h-1.97v1.106l1.446 1.521-2.233.831-2.102-3.456zm-5.517 75.9l.787-.693.396-1.107-1.97 1.107-2.103-2.213-3.022-2.084-.523-1.105-1.974-1.111-1.574-1.657v-2.078l-1.053-1.107v-3.187h2.366l10.38 9.141 4.072 2.774v1.521h1.578l1.97 2.078v1.662l1.05 1.657-1.05.974 1.05 2.213-1.444.558-1.052-1.104-7.884-6.239zm-7.358 23.965l-2.365-2.493-.92-2.771.659-.692 1.05 1.109 1.05.553 2.498 2.079 1.05-.974-1.05-1.658h2.231l6.306 5.401h-4.464l-1.974-.555h-4.071zm11.168-155.685v-1.108l.526-.552h-3.153l-1.446-1.527-1.05-2.213h-1.842l-1.181-2.635-1.05-1.108v1.108h-.526l-1.051-1.108v-.552h-1.313l-.657-2.08-1.576-1.108v-1.66l1.05-.552v-.555h-.524v-1.942l2.626 1.942 1.445 1.66 1.054.553 14.187 11.637v2.629l-3.153 1.664-2.366-2.493zm-11.694-19.945l-1.05-.419-1.05-1.105 1.443-.83 4.73 1.665v.966l-2.625 1.387h.523l-1.051-.555-.92-1.109zm-2.1 174.514l1.05 1.115h-1.05v-1.115zm1.574-31.157h.526v-.557l-.526.557zm1.052-126.182h.394l-.394-.417h-.526l.526.417zm3.022 21.884v-1.109l-3.548-2.492v1.108l3.548 2.493zm-1.05-10.526h.527l-.527-.552h-.526l.526.552zm2.496 137.123v-1.385l-.92-.965h-1.576v.965l2.496 1.385zm10.248-151.668l-3.548-3.738-2.759-1.385-3.414-4.569v-.974l-.527-.554v1.106h-.92v-2.35l2.498.693.526 1.105h2.755l2.892 1.942v.692l2.233 1.663 1.841 4.291 1.709 1.801-.789.834-.92-.557h-1.577zm-10.248 32.828h.527v-1.108h-1.448l.921 1.108zm-.92 127.148h.524v-.549h-.524v.549zm.92-143.354h.527l-.527-.556v.556zm.528 114.959h1.05l-1.05-.553h-.527l.527.553zm1.703 12.19l-.653-1.523-1.577-.692v.97l2.23 1.245zm1.183-114.544l.659-.693-3.023-2.215h-.522l2.886 2.908zm-2.364 54.016h.527l-.527-.552h-.522l.522.552zm3.023 34.349l-1.446-1.658h-1.577l.789 1.658h2.234zm-.396 27.982h.922l-1.446-1.661h-1.05l1.574 1.661zm0-146.68v-.418h-.524l.524.418zm0 11.911h.396v-.555h-.396v.555zm2.498 10.942v-1.387l-2.498-1.245v1.245l2.498 1.387zm-1.576-19.532v-1.106h-.525v.554l.525.552zm0 101.942h1.052l-1.052-1.108h-.525l.525 1.108zm-.526 8.03h.525l-.525-.553v.553zm.526 42.942h.524l-.524-.547v.547zm5.123-166.349l-1.972-1.105-1.05-1.109-1.05-.554-.527-.969h4.599l1.05.969 1.052 3.322v1.528l-1.576-.976-.526-1.106zm-1.051 25.212v-.557l-2.233-1.662h-.787l1.05 1.11 1.97 1.109zm-3.02 105.818h.524v-.555l-.524.555zm2.495-113.853l1.576-.554v-1.664h-.526l-.525 1.11-.524.554v.554zm2.626 9.696l-1.05-1.108h-.526v1.108h1.576zm-1.576 106.788h.526v-.555l-.526.555zm1.052-113.851h1.05v1.107h-1.05v-1.107zm1.05 17.175v-.556l-.526-.554v.554l.526.556z"/><path fill="#F9D472" d="M201.673 183.941v-3.324l2.496-7.757.528-5.541.523-2.216.526-2.635 1.05-2.77.526-4.298 1.446-6.369.526-4.293 1.576-3.738.525-4.848.526-2.221.393-2.624 1.577-6.514.526-3.739 1.97-6.926 1.577-11.771 2.102-4.294v-5.404l1.969-4.293v-3.184l2.104-8.587.395-3.325 2.103-9.142.524-3.737 1.051-2.632.393-3.188 1.053-3.742 1.052-8.17 2.496-6.649v-6.23l1.576-3.186 1.972-11.219 1.05-3.744 1.181-6.785 1.183-2.492 2.759-1.525h22.335l2.496 2.631 1.183 7.063v2.082l1.839 4.015 2.232 13.714 1.974 7.062.522 4.291 1.054 3.743 1.179 7.479 1.841 5.956.527 4.296.522 2.63.527 4.292 2.496 10.25v2.905l1.709 4.576 2.891 14.957 1.05 4.295 1.972 10.246 1.049 3.74.527 4.289 1.971 4.995.92 9.554 3.283 10.665-.656 2.769 2.103 6.373 1.577 7.063.916 3.739 1.58 10.115.657 1.935-.922 2.908-3.281 1.666h-14.848l-3.547-.557h-4.073l-1.709-1.797-1.837-8.445-1.05-2.085v-4.849l-2.498-7.752-.792-9.283-2.231-7.062-1.05-7.618-1.58-4.712h-24.699l-1.182 4.294-1.313 8.863-1.838 5.957-.922 7.618-1.576 3.319-.657 7.626-1.838 5.683-1.709 8.999-3.415 1.8h-15.766l-7.096-1.107-2.101-2.074zm8.145 1.385l2.496-.832h14.847l1.575-1.665 1.052-8.311 2.498-7.064v-2.908h-1.051l-2.629-1.527-.919-1.107-1.05-.55-1.051-1.104-1.972-1.528-3.154-3.327-1.443-.97-.526-.547-1.052-.559-1.051-1.111-.92-.546-1.576-1.528v-1.108l-1.183-1.938 2.629-2.909 12.875 10.664 1.446 1.104 2.755 2.917-1.969 3.459 1.315.688 1.972-4.29v-2.774h-1.972l-3.548-2.628-.526-.553-1.577-1.104-1.575-1.528-6.043-4.294-4.337-4.569 1.313-1.385v-2.214h1.185l4.861 4.286 3.546 2.221 1.579 1.661 3.022.967 3.548 3.744-.526 1.111 1.052 1.657.524 1.248 1.052-4.983 1.446-6.51 1.05-5.82.524-2.218.527-4.847 9.85.555 5.256-.555 5.912.83 2.367-.83h3.021l1.972.688 2.233 7.898.394 1.662.524 5.822 1.577 4.016 1.841.966.917-.966-3.281-3.47h1.573l.528 1.111h.396v-1.111l.783-1.517.789 2.628h1.054l1.051 1.107 3.019 2.637.527.546 2.496 2.217.525.418 12.087 9.835.659 3.602 1.05 1.107v1.67h-2.102l-1.972-1.67v-1.107l.395-.55-1.445-.417-1.053.417-1.05-.974h-.526l-.919-2.217-2.102-1.108-1.709-2.908-.787.832h-1.051l-1.97-2.218-.789-1.522h-1.838l-2.235-2.494.79-.695v-.547l-2.496 1.242-1.181-2.354-1.448-1.659v2.771l1.052 3.736.918 7.482 1.578 4.849.658 4.709.919 2.77 1.704 6.511h1.842l-1.577-1.67.527-.551 1.97 2.221-.395.553 3.285.832 3.285-.832h14.19v-5.401l-1.841-5.816-2.366-14.687-3.023-7.341.661-1.108v-2.769l-.79-2.355-.787-4.018-1.973-8.588v-3.32l-1.575-4.712-.526-4.298-.392-1.655-1.052-3.743-1.578-4.847v-3.741l-1.972-7.616-2.1-11.771-1.446-4.295-.92-6.789-2.233-7.201-.526-3.74-.789-2.63-2.498-.832-.783.832 1.05 1.109v.552l-1.974-1.109-1.573-1.663h1.573v-1.105l-14.32-10.945v.835l.526.551v.971l-2.101-2.08-1.446-1.106-6.698-5.263v-2.768l-.922.552h-1.183l.659-2.217.524-.556-1.052-.414h-2.496l-.654.552-5.784-4.571.791-.829v-1.665l1.575-.829 3.548 2.771 2.495 1.246 4.076 4.294 2.494 1.665 1.051 1.106 1.05.551 5.518 4.435 1.578.831 1.051 1.108 4.597 3.186 3.023 3.324 3.94 2.632.655 2.213 1.054 2.081v-4.846l-2.625-11.776-1.448-4.845v-4.852l-1.709-4.294-4.994-2.63-10.115-8.034-4.599-4.845-1.05-.557-6.57-5.123v-2.36l1.446-.55.526-.556h1.443l7.228 5.82.524.555 4.073 3.32 1.054.972 5.776 4.433 1.842 3.601 1.05 1.662v1.108l1.838 1.938-1.312-8.447v-4.019l-1.972-5.122-1.05-7.206-2.366-1.108-20.495-.827-1.838 1.794-1.578 9.145-2.233 6.926-.655 6.925-1.446 3.183-.526 5.404-4.071 18.283-.528 5.264-1.051 2.216-1.313 5.956-.657 5.263-.524 1.662-2.498 10.662v4.854l-2.104 2.212v6.233l-2.495 7.202-1.05 8.033-1.052 4.298-.526 3.182-.92 2.771-.525 3.186-.524 2.076-.525 4.29-1.05 2.777-.526 3.736-1.446 4.852-.655 5.68-1.446 3.873-.526 5.954-.791 1.812-.655 3.59-1.05 2.639-.526 7.338-2.233 5.682 1.05 2.354 5.255 1.108zm-1.576-2.497l-2.495-2.631 1.707-.692-1.181-2.632h2.496v-.967l-.922-2.219v-1.105h1.577l-.789-2.489 1.183-1.25 5.125 3.739 4.074 3.744 4.597 3.32 3.023 3.182-4.073.696-5.125-1.254-6.043-4.841h-1.838l2.364 3.187 2.496 2.212v.696l-4.073-.696h-2.103zm9.723-9.691l-1.972-2.074.395-.562-.395-.55-1.05 1.111-3.021-3.327-1.051-.417-1.052-2.216v-4.3l.526-.547.526-1.113 2.498 2.768 6.173 4.852.526.557 4.468 3.183 2.627 2.636 1.051.551v2.639l.656 1.381-3.679 1.521-4.205-4.432-3.021-1.661zm4.071-6.933l.528-.547v-.555l-1.052.555-1.972-1.112-.524-.554-2.104-1.523-1.97-2.212-2.364-1.251-1.446-2.905 2.235-.699v-2.905l1.575.83 9.197 7.478 3.022 2.215 3.284 3.328-1.577 2.497 1.05 2.077-1.575.689-2.233-1.108-4.074-4.298zm-8.668-8.029h.524v-.555l-.524.555zm14.975-13.572l-2.757-1.522h-1.051l-1.054-2.497-2.496-1.247-3.94-4.154-.92-3.875.92-1.941 3.022 1.941 2.498 2.071 3.021 2.216 3.02 2.634 3.155 1.664 1.972 2.072v1.116l1.442 2.905-1.442 1.386.917 1.801-2.102-1.113-4.205-3.457zm-2.757-11.637l-3.55-3.875-2.495-1.254-.524-1.936-.526-1.108v-3.739h1.576l1.969 1.667 3.022 2.072.527.55 6.175 4.853 4.071 4.294v1.662l-.524 1.108 1.312 1.941-1.312.69h-2.102l-1.446-1.664-6.173-5.261zm-6.045 27.29h.919l-.919-.558h-.524l.524.558zm7.621-36.986l-4.072-2.217-3.023-3.186v-1.107l1.575-1.801-.657-1.939h1.315l11.433 9.7 4.596 3.181 2.364 2.493-1.312.696-3.285 2.355-3.415-2.355-5.519-5.82zm17.737 5.397l-1.71-.688-.787-1.522h-1.05l-1.972-2.077-.524-1.108-1.577-.55-3.022-2.498-1.576-.693v-2.216l-1.71.974-2.364-3.604h-.919l-.525-1.108-1.052-.554v-.555l-.524-1.52-.527.415h-1.969l-1.314-2.772 1.183-3.603 2.627.693 4.597 4.156 4.074 3.185.526.554 15.768 13.435v1.657l-1.056.974h-3.546v-1.526l-1.051.551zm8.669-1.657l-1.444-1.108-1.051-1.108-1.05-.414-.528-.551-2.496-2.221-1.05-1.108-1.05-.418-.396-1.104-1.05-.551-1.577-1.665-1.445-.552-.525-.974h-1.05l-7.621-6.507-2.629-2.634-1.444-.552-3.022-3.185-1.448-3.051 1.448-.828.395-.415 1.838-.694 5.388 4.988 1.446.971 6.699 5.4 1.446 1.107 12.744 10.663 1.576 1.108 3.021 2.771 5.518 4.288h-2.496l-4.205 1.394-3.942-3.05zm35.737 20.361l-2.102-1.525-1.972-2.216-3.545-2.631-8.145-7.068-1.578-.965-2.495-2.216-2.102-1.109-1.051-2.076-3.942-2.078-8.804-8.173-1.444-1.104-4.073-3.188-1.576-1.109-1.05-.965-1.972-1.666-7.621-6.923-1.576-1.111-1.97-1.66-7.228-4.988v-2.491l1.579-.554-1.316-2.078 1.84-.972 10.117 9.005 5.123 3.462.919 3.184 6.569 2.772 1.711 1.801 10.641 9.14 1.577.558 4.597 3.731 1.97 2.222h3.155l-2.102-2.222-1.054-.55-1.97-2.078-16.292-13.435.527-.552h2.494l4.073 2.077.92.971.789-2.495 1.841.973 1.05 1.106 1.051.554 5.384 4.573 1.709.827 1.05 1.107 6.57 5.264 1.05 1.108 1.448 1.113 2.101 1.658 1.05.414.922 1.108 1.574 1.108 1.054 1.657 1.444 1.528-1.969.555 2.364 2.488.789 4.717-1.576-.695-5.651-4.294-1.575-1.113-2.496-2.762h-1.051v1.104l4.073 4.294 2.1.838 5.913 4.564h-1.838l3.021 3.738.527 2.637 1.051 1.104v1.107l.92 2.078h-2.498l-3.023-3.183zm-50.976-53.186l-1.05-.968-1.446-.558-1.576-1.66-4.468-3.047-2.627-3.465v-.966l.525-.557v-3.738h.919l3.681 3.186v.969l1.97.694 2.102 2.074 1.97 1.11 1.051 1.106 4.073 2.77v4.711l-1.183 1.246-2.891-2.354-1.05-.553zm-11.167 28.25l1.444-.827-.919-.554-.525.554v.827zm8.147-41.131h-.92l-5.125-4.017-.657-3.185 1.577-.832.528-2.631 2.496 2.631 4.464 3.602.658 1.247-.524.552h-.525v1.112l4.073 4.292 3.151 2.074v2.217h-1.05l-7.224-5.127-.922-1.935zm8.67-2.078l.523-.556-.92-2.63-.917 1.939-1.84-.969-1.709-1.802-6.437-4.015-.919-.554v-2.632l-1.05-2.216v-1.524l3.545 3.047v-1.523l-2.496-2.63v-1.109l.919-1.111.526-1.524.654-.83-.654-1.383h.526l1.05 1.106 1.576 1.107 3.416 2.635h1.052l-3.547-3.742-3.022-1.658v-1.527l-.92-1.799 4.86 2.49-.918.836v.552h2.101v1.106l6.045 6.373-.526 1.109.526.554 1.706-.972 1.448 1.525v.556h-2.629l3.024 3.185v1.662l-.922.969-1.052-.969-1.05-.552-1.05-1.665h-1.446l-1.052-1.107-.789-1.522h-1.707l-1.05-1.109-1.577-1.11-1.97-1.521v.415l1.446 2.217 1.574 1.109 2.103 2.074h-1.051l-.524-.552-.527.552v1.11l1.577 1.662h.92l.525.969 5.647 5.4-.524.556-.526 1.662-1.05-1.105-.918-.559zm4.072-17.174l-2.102-1.661-1.446-.975-3.151-3.319-1.972-1.525-3.021-2.77-1.576-.972 1.705-.968 1.841 1.939 4.599 3.322h.526l-1.97-2.628-6.701-5.127v-1.938h1.576l5.518 4.847 4.073 3.186-.789.829 2.367 2.359 1.051 1.658.395.556 1.05 2.076 2.628 2.22-1.974.552-1.705-1.662h-.922zm-12.742 5.955h.524l-.524-.553h-.526l.526.553zm35.077-1.108l-5.123-4.295v-1.107h-1.444l-2.629-2.081-3.547-2.765-.918-1.112-2.104-.967h-1.052l10.774 9.278v1.523l-8.671-7.614-3.02-1.662-1.579-1.525-8.276-7.618h1.183l3.282 2.076-.787-1.52-5.519-4.018-1.576.831-1.051-1.662 1.051-.556-2.759-2.907 1.576-1.664 2.629 1.943 5.123 5.399 6.175 4.292 4.994 4.295 1.575 1.108 2.496 2.08 1.58.829 1.574 2.355.787-.693 2.236 2.354h1.576l.92 2.216 3.151 2.078 3.55 3.737v2.907l-6.177-5.535zm-30.348 13.711l-1.315-2.63 7.227 5.677v.971h-1.05l-2.498-2.771-2.364-1.247zm28.903-32.548h-1.576l-1.051-1.108v-.554l-1.052-2.078-3.021-.554-.526-1.108-2.364-1.249-1.183-2.493h-1.444v-2.075h-1.578l-2.101-1.107h-.393l-.527-.558.92-1.106.524.555v-1.11l-1.444-.968-.524.554v.414l-.527.556-1.05-.969v-.555h-.79l-.789-2.354-1.446.69-.524-1.105-1.05-.554v-2.632h-.922l-.523 1.108h-1.446l-1.707-2.77.525-.972.655-2.493 5.52 4.017 1.968 2.218 1.578 1.106 1.579 1.527h.785l5.782 5.263v.691h1.313l3.81 2.63 3.023 3.186 2.102 1.11.394 1.108 1.051 1.109v2.079l2.1 2.217-1.05 1.522-3.021-1.522v-1.666zm-2.101-10.665l-1.054-.554-1.968-2.216-1.05-.555-1.58-.969-1.442-.833v-1.108l-3.55-1.937-1.052-.971v-1.936l-1.577.829-.524-1.664-.92.558-.524-1.11-2.105-.972-1.314-2.078-1.706-.69v-1.526h-1.972l-1.05-1.108v-.552h.526v-.554l-1.052-1.108v-1.525l-.526-.554v-1.658h1.052l10.774 8.724 1.97 2.077 1.97 1.106 1.58 1.527v1.106h1.442l3.153 2.632 1.444 1.105 3.155 3.188v2.216l1.444 1.522-.918 2.22-1.709-.976-.917-1.656zm-24.439 34.352h1.052l2.496 2.63h-1.05l-2.498-2.63zm.526 51.521h.526l-.526-.55v.55zm1.972-21.466v-2.771l2.1-2.631.528-5.402 2.496-11.774 1.05-7.896 2.496-6.647h.527l1.05 4.294.526 5.402 1.446 4.848.524 4.295 1.051 3.738v3.876l2.496 7.204v6.095h-12.216l-3.418-.835-.656-1.796zm3.679-38.643l1.445 2.074h-1.05l-2.761-2.908 2.366.834zm10.115 39.196v-4.848l-2.366-7.759-.656-4.568-.526-2.218-.655-4.985-1.446-3.739-3.021 15.235-1.05 3.184v5.126l-1.975 2.908v1.663h11.695zm-.526-89.751l-4.599-3.188-3.545-3.74 2.628-.557.524-.688 3.809 1.108.658-1.525 1.051.552 3.679.833 2.498 3.74v.832h-1.577l.526 2.079 1.444 1.66v1.106l.523 1.108v3.188h-1.444l-6.175-6.508zm-7.617 1.105h.522l-.522-.554v.554zm1.574 8.59l-1.574-1.663v1.663h1.574zm-1.051 37.534l1.051 1.105h-.524l-1.05-1.105h.523zm.527-2.631h.524v1.106h-.524l-.527-.55.527-.556zm.524-3.741h.527l-.527-.554v.554zm3.022 9.141v1.109h-.525l-1.052-1.109h1.577zm1.578 2.078h.918l1.051 1.109v1.108l-1.969-2.217zm20.89 23.684h1.445v-.551l-.526-.556v-1.11l-1.446-.556-2.627-1.519v.553l2.627 2.632v1.244l-7.225-6.092h2.101l-1.05-1.524-1.445-.554-1.052.554-2.101-2.217 1.575-.552v-.554l-1.05-.554-1.577-.97-1.97-1.108-.524-.554h-.527v.554l2.628 2.632h-.659l-4.73-3.603-1.05-2.213h.789v-.555l-2.101-.693v-3.324l3.153 2.353.526.555 15.766 12.88 3.547 3.743v1.659l1.576 2.634-.789.83-3.284-3.464zm-14.845-18.282l-1.054-1.662-1.444-.415-1.052-1.108 1.183-1.248 2.625.971 4.862 5.127-.524.552 2.102 2.631h-.526l-4.599-3.184-1.573-1.664zm-3.55 10.25l.528-.551 1.05.551v1.522l-.526.556-1.052-.556v-1.522zm1.97-7.064l-1.442-1.521v1.521h1.442zm.526-64.406h.526l-1.444-1.527h-.526v.419l1.444 1.108zm7.753 95.016v-.833l3.021 1.939 1.052.556 1.968 2.077h1.578l-1.05-1.524-1.05-.552-.528-.556-.918-.552.396-.554-1.842-.552-.92-2.082h-1.05l-2.759-2.214-1.051-.969-1.052-.554-.92-1.662v-1.662l-1.707.967-1.446-1.383-.392-1.662.918-2.22 1.054 2.22 7.617 5.402 5.651 4.848 1.577.971.919 1.106 1.05.552 2.498 2.632 2.101 1.109 1.578 3.183-.528 1.109-3.939-2.074-.789 2.354-7.882-5.958-3.155-3.462zm9.591-4.847l-2.496-2.077-4.6-3.186-2.495-2.77-2.102-1.112-2.496-2.628-.527-1.666-3.415-2.905 2.1-1.11 9.985 8.309.528 1.112 1.968 1.107 7.356 5.956-.785 1.66 2.101 1.523-1.05 1.111-2.499-2.217-1.573-1.107zm-15.767-59.557l-2.104-1.11v1.11h2.104zm.132 59.002h.918l.527.554 2.496 2.214.524 1.111h-1.05l-1.577-.831-1.838-3.048zm18.262 22.576l-3.153-3.186-6.043-4.293-4.6-4.846h-1.183l-1.444-2.08-1.444-1.662v-2.214h1.968l1.315 2.77 2.367 1.525 4.073 3.319 3.021 2.079 10.509 8.864.655 1.94-1.05 2.072v-.55l-1.97-2.072-3.021-1.666zm-16.816-55.819h1.445l3.153 3.188v.554l-3.153-2.078-1.445-1.664zm.393 25.213h-.393v-.56l.393.56zm.523.552h1.054l2.628 2.217v.552l-2.102-1.11-1.58-1.659zm4.076 24.934v-.698l-1.972-2.214h-1.05l.919 1.8 2.103 1.112zm-1.972-58.175l.526.55h-.526l-.524-.55h.524zm1.578 14.542l1.445 1.522h-1.051l-1.446-1.522h1.052zm2.889 4.986l-2.496-1.246h2.627l1.448-1.662-.924-2.078-1.05-.552-1.577-1.665v-.555l2.368.833 4.86 5.125v.828l-3.023-1.519-.654.691 1.05 1.109v.969l-1.974-.969-.655.691zm-1.444 16.898l2.1 2.217v.554h-.523l-2.627-2.771h1.05zm18.392 61.768l-1.313-.688-1.972-3.052h-1.576l-3.812-2.624-.522-.559-3.023-2.765-1.05-.971h-.528l-3.546-3.742v-.553l-1.05-2.771 1.05-.55.658-1.809 1.838 1.391 3.155 1.522 1.445 1.662v1.109l1.574.41 1.053 1.116 12.613 11.081v1.792l2.101 4.303-1.185 1.385-4.99-3.466-.92-2.221zm-16.816-81.575v1.107l-1.05-1.107h1.05zm3.548 24.1l1.577 1.662v.554l-3.155-2.216h1.578zm1.705 29.917l-.655-1.385-1.578-.83v1.11l2.233 1.105zm14.323 50.144l-1.841-3.19-1.969-.688v-2.078h1.05v-.973h-1.578l-1.84 1.25-2.231-2.358-1.97-1.108-3.944-4.013-.655-2.362-1.578-3.319v-.971h1.054l3.02 2.075 2.498 2.634 4.597 3.325 2.104 2.081 3.02 1.658 2.104 2.081 4.073 2.905 2.496 3.604-.524 1.105 1.052 1.522-2.366 1.248-2.235-1.797-4.337-2.631zm-15.503-88.651v.56l-.526-.56h.526zm0-11.218l.524-.552.92.552v.556l1.052 1.108v.554l-2.496-1.387v-.831zm4.07 32.552v-1.386l-3.019-1.662v.966l3.019 2.082zm5.783 72.164l-5.255-4.847h-.789l-1.312-2.633-1.445-1.665v-3.871l1.969.692 2.103 1.52 7.62 5.399 4.994 5.404v.693l-5.518-.693h-2.367zm-5.255-59.007v-.551l-3.418-1.531 1.841 2.082h1.577zm-1.577-41.415v1.111l-.524-.554.524-.557zm0 18.84l.527.554h-.527l-.524-.554h.524zm1.577.968l.92 1.108v.554h-.92l-.789-1.662h.789zm0 10.803h1.972l4.596 4.851h-1.968l-4.6-4.851zm2.496-8.588v.556h-.524v-.556h.524zm0 22.577h.525l-.525-.555v.555zm5.125 11.772l-1.054-1.108v1.108h1.054zm1.444 34.905h1.053v-.554l-1.053.554z"/><path fill="#76A9D8" d="M317.157 182.969v-8.035l-.787-4.432.787-2.628v-19.253l-.787-4.99.787-2.497v-19.386l-.787-4.294.787-2.632v-19.391l-.787-4.982.787-2.495v-19.393l-.787-4.569.787-2.355v-19.948l-.787-4.291.787-2.635v-19.253l-.787-4.431.787-2.63.526-5.123 3.545-1.801h20.891l3.812 1.248 1.312 4.154v149.174h3.55l2.364-1.251 4.73 1.251h17.864l2.497-1.389 4.601 1.389h4.602l2.492 1.251.926 12.323-.926 5.813v9.284l-2.756 1.936h-67.009l-2.23-1.248-.791-2.491zm27.987 1.525l1.841-.553 9.326.553h14.319l1.709-.553 11.429.691 4.208-.827v-10.529l.523-8.592-.657-5.813-4.466-.559-3.681-.691-2.498.691h-18.786l-4.07-.691-3.286 1.107-5.911-1.107-.527-21.193.527-2.075-.527-24.103.527-2.767-.527-24.101.527-2.631-.527-23.687.527-2.632-.527-24.237.527-2.08-.527-23.13-2.498-1.385h-14.846l-8.145.969v26.455l.526 3.188-.526 3.186v19.945l.526 3.737-.526 2.634v14.542l.526 4.846-.526.556.656 4.019-.656 2.354v30.608l.526 3.741-.526 2.77v19.802l.526 3.744-.526 3.327v10.112l.79 3.044 1.31.695 6.045 4.291 4.6 4.847 1.577 1.111 2.495 2.075 3.154 2.216v1.392l-4.073-1.392-4.862-.693-4.332-3.598-1.579-.553-2.365-1.663.92-2.631-.527-2.075-1.968-2.776h-1.184v15.655h2.1l.527-.555 4.076.969h19.312zm-9.199-103.605l-12.22-10.112-1.18-.691-1.317-2.077-.522-2.08h1.315l7.356 5.954.786.694 2.233.833v-.833l-11.169-9.139v-2.217l6.045 4.708 4.074 3.741 1.577 1.106 4.598 3.74 4.206 2.909.92 1.937.916 1.527h-2.361l1.969 2.769-1.053 1.11v.968h-.522l-2.104-2.078-3.547-2.769zm-14.716 2.769l.527.554h-.527l-.522-.554h.522zm-.523 98.205v-.555l1.05-.558.524-.965.527-.558.529-1.382 2.625 3.874-.921.971-2.761-.828h-1.573zm17.868-127.707l-2.629-2.218-2.495-2.628-2.103-1.667-.393-.552-1.051-.554-1.055-.967h-.654l-7.226-5.956 1.838-.558v-1.658l-.527-.972v-2.214h1.445l1.577 1.662 13.138 9.972 3.679 4.018-.522.968 1.052 1.666-.529 1.106v2.631h-1.575l-1.97-2.079zm0 18.701l-1.052-.556-1.577-1.525-6.567-5.402-1.446-.691.918-.969h-1.576l-4.728-3.74-1.576-2.494 1.311-.694v-1.11l.659-.687-1.577-2.493h1.184l2.757 2.212 1.579.968 3.022 3.326 1.969.971.524.554 1.579 1.108.525.55 1.971 1.527 3.02 2.768 1.445.694.659 1.384v6.926l-2.497-2.074-.526-.553zm.526 30.055l-1.577-.554-.523-.416-2.497-1.662h-1.577l-.527-.556-1.05-.55v-1.11l-2.233-.694-1.841-1.939-1.971-1.106v-2.08l-1.445.694-.654-1.247v-1.105l-1.975-2.083 1.579-.551v-2.771h.918l.527.552 4.597 3.741 1.055 1.111 12.215 9.97v5.123l-2.363-1.245-.658-1.522zm.392 45.709l-1.052 1.247-.918-1.809-2.496-.688v-.968l.919-.558v-.41h-1.443l-.525-.559h-1.186l-1.443-2.221-.92-.55v-.83l-3.546-1.806-1.05-1.107h-1.841l-.788-1.516-1.315-1.521.92-3.331-1.579-2.213h1.052l1.973 2.213 2.629 1.522.392.556 10.775 8.032 4.6 4.844v1.108l.523 1.113v1.385l-2.103-1.385-1.052.968h-.918l.918-1.52h-.526zm1.577-52.636l-1.052-1.106h-2.495v-3.186l-1.05-.555-1.053-1.107h-.918l-.659-.692-2.231.831-4.729-3.878-.527-.555-2.629-2.078v-1.662l2.629 2.772h.791l-1.843-3.049-3.022-1.521-.654-5.129h.654l1.973 2.083 1.709.968 3.416 2.77 5.648 4.294.919 1.107 2.104 1.663 5.257 5.54-.791 1.8 1.579 1.801h-1.975l-1.443.693-.658-.693 1.05-1.111zm-5.649-75.208l.525-.557-.525-.415-.918.972-3.154-3.188-.92-.552-4.073-4.296-2.102-1.524-.527-1.657 1.053-1.112-1.053-.555h-1.97v-1.52h4.73l7.49 5.817 3.022 2.77 4.598 3.599v2.772l1.575 1.661-1.313 1.387 1.313 1.247v.831l-4.598-2.356-3.153-3.324zm4.072 104.71l-.918-.555-1.052-.966-4.072-3.328-6.177-5.402-1.441-.414-3.811-4.015.786-1.387.396-.554-.396-1.658-1.052-.974 1.184-1.938 4.334 4.018 1.052.552 4.072 3.185v2.078l4.075 2.77 1.05-.549.526.549 1.969 1.39.526 1.382 1.053.412 1.315 4.298h-.793l-4.07-3.187-2.629-2.628-1.443-.555-2.104-2.216-4.073-2.082v.828l2.628 1.809.527.549 2.495 2.214 2.495 2.636 2.104 1.107.525.554 2.891 2.493.788 1.52-1.709-.827-1.051-1.109zm-12.219 25.208v-2.905l-1.441.831v-1.112l1.05-.558v-.827l-2.761 1.801-1.841-2.078.527-2.351-.654-2.362.786-.823 3.942 4.013 1.443 1.113 1.053 1.515h1.577l1.708 1.944-.79.83.524.97 1.841.692.921 1.938-2.628.696-1.184-1.111-4.073-2.216zm2.631-123.411l-.526 1.107-.528-.552-.524-2.355-5.386-4.707-.659-1.524v-3.326l.527-.417.396-2.212 13.532 10.94 1.839 1.941 3.022 2.212 1.838 1.944-1.706.968 1.443 2.908v3.186l-12.085-10.114h-1.183zm7.618 16.068l-2.103-1.663-3.547-3.739-3.023-1.524h-.524l-.659-1.523-1.312-.691-4.074-4.294v-4.293h1.841l2.761 2.214 3.022 1.523 4.072 3.326 1.05.416.657 1.524 1.839.69 5.126 5.403v1.522l-.529 1.108.793 1.801-.923 1.111-2.89-1.25-1.577-1.661zm-3.02 16.065l.918-.968h-.394l-1.05.554-1.838-.693-.791-1.523h-.92l-2.103-2.078-.525-1.106-1.445-.554-1.576-1.664-1.575-.83v-1.802l-.923-3.184v-1.664h2.498l3.547 3.737 5.651 4.294.525.56 6.831 5.536 2.495 4.991-1.709 1.796h-1.575l-1.97-1.106-4.071-4.296zm-12.222 12.466l1.973 2.08h-1.05l-.923-1.105v-.975zm0 42.939h1.445l3.548 3.743v1.104l-1.441.412-3.552-2.213v-3.046zm1.446 12.877l-.918-.55-.527-1.662.527-1.107v-3.741l3.415 2.493.659 1.248-.92 1.801 2.363 2.487h1.839l-.786-1.519-1.578-1.104v-1.389l7.227 5.683v1.108h-3.153v1.107l1.447 2.073h-1.447l-6.041-4.844-2.107-2.084zm19.58 54.715l-2.236-1.663-4.07-4.286-1.315-2.636h-1.707l-.922-1.938-1.707.831-1.97-2.077-3.023-1.665-4.074-4.295v-2.633l.527-3.739 2.495 2.628 4.602 3.744 1.969 2.22 1.052.415 2.495 2.218 2.629 1.664 9.591 8.027 3.677 2.635-1.183 1.246-2.494-.695h-4.336zm-4.732-70.363l-1.575-1.104-2.761-2.913-6.438-4.015v1.939l-2.363-1.663.918-.829-.522-.556h-1.579l-1.05-.97v-1.108l-.396-1.109.396-1.108-.396-.552v-3.74l8.54 7.062 2.103 2.082 6.042 4.292 3.022 3.047-.918 1.798 1.052 1.658v.973l-4.075-3.184zm-2.101 55.268l-4.6-4.704-.525-1.116-2.366-1.242-.656-1.528h-1.971l-3.547-3.739v-3.74h1.971l2.495 2.773 3.154 2.078 1.97 2.212h1.053v5.268h1.052v-3.744h1.443l3.154 3.183h.524l2.495 3.328 2.238.832-.793.695-1.968-.555h-5.123zm-11.695-56.371l-1.053-.973v.973h1.053zm-1.052 13.432l.527-.413-.527-.558v.971zm0 21.467h2.106l-1.054-.969-1.053.559v.41zm3.547-32.406v-.835l-1.971-1.108v.831l1.971 1.112zm1.316 6.641l2.366 1.111v.555l.918 1.661-.918.971-4.207-3.741 1.841-.557zm.261-33.791h.528l-1.053-1.107h-1.052l1.577 1.107zm-.525 19.943h1.053l1.577 1.526v1.106l-2.63-2.632zm10.249-19.389l-.525-.555-4.072-3.189-3.549-3.74h.659l7.487 5.821 1.443 1.107 2.631 2.771v.827l-2.631-1.935-1.443-1.107zm-7.619 1.109h.393l-.393-.556h-.527l.527.556zm7.619-74.657h-1.052l-2.103-2.08-.394-1.107-2.102-1.106-1.97-1.666h1.97l.525.556 1.052-.967h4.338l3.413 2.354-.656 1.384 1.575 2.077-2.496 2.493-1.576-.831-.524-1.107zm-6.701 40.307h.524l-.524-.554v.554zm1.577 37.533h-.525v-.55l.525.55zm1.97 36.012h-.918l-.525-1.104-1.052-.558v-2.632l2.102 2.077 1.446 1.112 1.05 1.654 1.577 2.085-.789.827-1.838-1.943-1.053-1.518zm-1.97 22.992h-.525l.525-.415v.415zm.527-14.409h-.526v-.55l.526.55zm5.123 20.369h-1.051l-.526 1.107h-.523v-1.669l-1.054.562-1.313-.699 1.313-1.379v-2.354l3.286 1.242 3.417 4.44v1.932l-1.052.553-1.053-.553-1.444-3.182zm-4.074-58.037h.919l-.525-.416-.394.416zm2.496 36.011l-2.231-1.108.785-1.659 4.468 3.183v1.801l-1.97-1.108-1.052-1.109zm-1.049-107.896v-.554h-.527l.527.554zm-.528 136.436h.527v-.563h-.527v.563zm.528-24.793v-.562h1.05l1.317.695 2.625-1.385 1.707 1.793-1.575.558h-1.973l2.891 3.735h-1.445l-4.597-4.834zm.526 16.2l.523-.557h-.523v.557zm2.101-143.912h.918l-.918-.55v.55zm0 60.114h.393l-.393-.554v.554zm.918 60.115l1.579 1.108v1.245l-2.233-.839.654-1.514zm.526-14.544l1.053 1.104v.556l-1.053-.556v-1.104zm1.575-109.422l-.522.554-.527-.554h1.049zm-.522 144.322v.554h-.527v-1.108l.527.554zm1.575-143.358l-.523.556v-.556h.523zm11.691 164.828l-1.575-1.521-.526-1.107-1.445-.558v-.555h.92l1.052-.551-1.576-.555-.396-2.076-1.05-1.108-1.443.691-2.103-2.211h-2.104l-1.052-.563 1.052-2.216v1.663h4.073l5.124 4.017v1.389h1.971l1.577 1.521v.83l-1.577-.83-.394.555.659 1.392 4.334.83-1.973.409-.523 1.111-.526-.557h-2.499zm-1.575 7.064l-1.052.97-1.97-2.075-.527-1.111h-1.572l-3.551-3.735 1.053-1.111h-2.104v-3.463l1.843-.828 8.406 7.06.527.555 1.97.977 1.577 1.658 3.021 2.075 1.577 1.665-2.102.551-2.103.695-2.497-1.246-2.496-2.637zm-9.194-8.584h1.05v-1.107l-1.05 1.107zm3.149-5.541l1.974.689h1.576l-.526 1.526-3.023-.973v-1.242zm6.045-3.605l-.526-.559h3.022v1.111l-1.971-.553h-.525zm24.441 17.179l-1.978-2.213h-.521l-1.711-1.668-1.706.833.785.835h-1.179l-3.416-2.636.791-2.219h-1.447l-.791 1.666-.527-2.632-1.048.557-.529-1.107h-1.442l-1.051-1.114v-1.66h-1.576l-1.182-1.804-2.63-1.936.789-1.528-.525-1.111 2.627-.684 12.222 9.837.915 1.107 1.58.964 1.97 1.664 1.58 1.104 4.593 3.744 2.497 1.797v1.389h-3.545l-2.498-2.635-1.047-.55zm-8.933 3.736l-2.238-1.663h-1.575l-1.444-1.522 1.968-.688v-2.075h-.523l-.529 1.658-.915-.553-.527-1.105h-1.58v.547l.529.559h-1.052l-.524-3.187-.525-.555-.396.555h-2.102v-.555l1.576-.553v-1.111h1.446l1.047.557h1.843l.921 2.075 2.627.973 1.184 1.242v.559h.523l6.703 5.121v.834l-3.156-1.111h-3.281zm-10.385-12.877v.557l-.523-.557h.523zm22.863 2.073l-.527-1.517-1.971-.557-1.579-1.663-3.018-1.527-3.55-3.731h-2.102l1.182 2.35 2.89 2.214v.695h-.915l-1.055-.97-2.102-1.661-.918-1.108-2.104-1.52-.523-.563-1.444-1.111v-1.104h.915l2.632 2.216h1.312l-1.575-2.488 3.284.827h.918l2.629 2.225 4.077 2.628.52.55 1.974 1.111 2.627 2.633 3.544 2.769v2.078h-1.05l-3.021-3.183-1.05.407zm-5.125-9.558l-1.97-2.216h1.572l.397.555 1.58 1.108 1.569 2.081h-1.05l-1.574-1.528h-.524zm-1.445 7.485h1.048v1.107h-1.048v-1.107zm3.545 2.628v.557l-.52-.557h.52zm1.974-13.436h1.052v2.212h-1.052v-2.212zm0 5.956h1.052l2.102 2.22-.786.692-2.367-2.354v-.558zm0 9.144l1.574 1.659h-1.574v-1.659zm2.099-11.214v-2.779l3.42 1.806-1.315 1.377-.525-.403h-1.58zm2.105 4.704l.917 1.105v1.112h-.524l-.918-2.218h.525z"/><path fill="#D8ABD7" d="M403.213 186.569l-1.968-2.075v-12.466l-.527-14.82.794-4.297-.794-21.885.794-5.124-.794-21.882.794-4.159-.794-22.021.794-5.125-.794-21.744.794-4.294-.794-22.024.527-3.461v-17.731l1.709-1.662 3.415-.969h20.366l2.757 1.525.789 2.214v8.038l.785 4.153-.785 6.648v15.511l.526 2.77v6.928l3.019-3.185 1.052-3.327 2.893-3.049 1.702-4.428 2.896-1.801.916-3.878 3.812-4.017.921-3.05 3.157-3.876 9.582-15.234 3.55-1.942h24.572l3.545 1.248 1.443 3.045v2.214l-3.547 4.294-3.019 4.713-2.104 2.77-1.442 3.188-3.027 3.182-1.574 3.325-2.496 3.186-1.049 2.079-3.546 4.846-3.549 5.957-3.155 3.74-2.362 4.294-5.259 7.481-4.075 6.508-5.911 8.168-1.181 3.051-2.889 3.047 1.834 4.017 2.893 4.428 4.206 8.453 3.812 5.677 3.147 8.453 4.733 8.86 1.052 1.667 2.625 5.394 2.498 4.297 6.176 12.327 5.254 8.31 5.127 12.882 2.228 3.463 3.688 7.48 3.02 5.397v2.223l-1.052.966-4.602 1.666h-17.732l-3.68-.557h-4.602l-2.493-2.628-1.977-4.294v-2.492l-4.463-5.817-3.68-7.9-1.442-3.738-2.234-3.745-14.191-28.389-1.314-3.46-1.187-1.947-1.044 7.483v15.655l.785 4.148-.785 6.509v16.074l.785 4.299-.92 6.782-1.574 3.46-6.438.557-3.545-.557h-15.377zm18.53-1.243l2.358-.832 3.156-.553.919-1.112v-68.7h1.447l1.574 4.983 3.15 4.717 4.602 9.55 3.02 5.404 12.747 25.763 1.053 1.659 5.912 10.669 2.625 6.793 7.884 1.659 3.418-1.385v-.555l-1.582-.558-3.019-1.657h-1.574l2.1 2.215h-1.052l-3.021-1.666-5.122-5.394v-.42h1.048l2.497 2.633 3.024 1.658h1.051l-8.938-7.615-.786-2.081-1.968-2.216v-.55h1.184l8.533 7.613 3.024 2.081 1.055 1.109 3.021 2.077 4.202 3.877h14.06v-2.911l-3.813-6.649-1.709-4.432-11.429-20.219-4.067-9.973-1.845-3.05-2.498-5.407-3.151-4.843-1.445-3.182-1.573-2.774-5.649-11.773-1.447-1.662v-.551l-1.055-1.525-1.574-.831-1.577.831-3.414-2.77-3.812-2.632-6.964-6.371-8.537-7.062h1.442v-1.114l-.653-.691-1.582.832-2.361-1.106-1.048-1.106-3.547-2.495v.83l3.547 3.737v.556h-.402l-4.064-4.293v-.969l-1.056-1.105h-1.574v-1.387l2.63-1.385-2.234-1.524 1.442-.691 8.413 6.509 2.49 2.771 2.1 1.107.401.412 11.299 9.145.92-.969h.522l-.522.969 4.598 4.848v1.66l3.151 2.082.394.552h.526v-1.248l-3.542-6.23-5.127-10.252-2.498-4.432v-1.383l2.498-2.77 4.598-7.48 2.632-3.185 6.037-9.695 3.022-4.294 4.072-6.51 3.291-4.019 1.836-4.015 3.542-4.294 1.582-3.188 3.019-3.737 1.052-2.216 4.463-5.541 2.106-4.573 2.625-2.767 1.976-3.742 2.1-2.079v-1.662l-1.052-.969-8.54-.688-5.256.55h-13.799l-2.498 3.876-2.49 3.188-2.103 3.74-2.235 2.909-1.314 3.741-2.888 1.939-1.318 4.43-3.279 2.219-.925 4.848-3.151 2.216-2.103 4.018-2.1 3.185-1.973 3.741-4.202 4.987-1.841 4.017-.658-3.603v-47.79l-1.313-1.384-20.887-.827-2.764 1.383v15.372l1.052 4.848h.525l.524-1.106.789.83.789-.83.395 1.106 1.577.417 7.62 5.403 3.021 3.182 2.106 1.662.522.558 3.024 2.074v1.527l-2.494-1.804v1.108l3.02 2.079v2.214l-1.582-.831h-.923l1.189 2.08-2.757-1.524-1.577-1.523-2.103-1.661 1.445-.694-2.37-2.494h-1.052v.831l1.582.691v1.108l-2.104-1.108-1.445-1.522-2.1-1.11v-1.106h2.1l1.052-.556h1.968v-.966l-2.49-1.387v1.387l-.796.693-3.279-2.357-1.577-.55 1.051-1.109.526-.971-1.709.834-1.445-1.387v-.554l-4.074-2.216v21.469l.923 2.629-.923 3.326v20.359l.791 3.742-.791 2.214v20.917l.791 3.045-.791 2.91v20.359l.791 3.189-.791 3.32v20.361l.791 2.903-.791 3.052v14.409l.527 1.659-.527.553v3.743l1.185 5.401h12.609l4.736.833zm17.73-114.132l-1.567-1.109-1.585-1.662-1.442-.968-2.103-1.663-1.968-1.386v-.692h3.541l-2.1-2.216-.924-.556-2.1-2.076-4.067-3.326-6.569-5.813-1.582-1.11-3.02-2.631-2.1-1.109-.921-1.107-4.863-4.292-1.313-2.079v-1.661l-.525-1.664v-1.524l-.653-1.939 1.703.832.525.552 4.207 3.604-1.183 1.246h1.051l1.052-.555.391.555-.656.829.656.694.53-.969 1.049.969v1.11l1.313 1.383 1.183-1.383 3.682 3.738v1.108h.92v.554l-2.361.693 1.832 1.94 3.159 2.217 3.02 3.184 1.574 3.188 3.023 1.662h1.968v-1.662l1.055-.558.522-.967 1.973 2.08 4.597 3.184 1.574 1.662 1.976 1.107 3.936 4.018-1.311 1.386-2.752-1.526.781 1.662 1.971 1.385.526 1.11-3.415.69-2.756-2.907h-1.453v.968l4.731 3.741-1.052.97-3.68-2.911zm-4.595 5.402v-.555l-1.052-.555v-.554l-.522-1.109.522-.553-5.911-2.495-.657-.691-1.574-1.107-.525-.554-1.979-1.523-1.045-1.107-4.075-2.91v-2.491h-.521l-.53 1.106-1.052-.556v-1.105l1.052-.97-2.622-4.157-1.971-.691h-1.447v-1.108l-2.103.554 1.577 1.661 1.446.691v1.804l-1.973-1.521-1.577-1.525-1.445-1.108-.523-1.108 1.312-.694-2.891-3.046 1.187-.693-2.236-4.709.657-1.939 1.442 1.386 1.053 2.353 1.574-.691 3.947 2.632-1.447.556h-1.052v.69l4.072 3.603 4.071 4.295 5.12 3.319 1.979 2.081 3.019 2.216.526.415 1.578 1.106 11.952 9.833-1.838 1.943v2.772h-1.971l-.52-.557-3.027-2.634zm-15.764-48.894l-1.441-.693-1.188-2.495-3.027-1.106-2.49-2.77-2.629-1.662-4.466-4.017 1.442-.694-1.05-1.106v-2.08l15.24 12.882 3.159 2.082 3.674 4.015-.654 1.386v1.385l-3.55-1.942-3.02-3.185zm-4.075 71.886l-4.072-3.74-4.468-3.466-2.234-3.459h1.839l3.812 3.186 5.124 5.402 3.55 2.631.916 1.663-.391.554h-1.056l-.521-.554-2.499-2.217zm-6.175 83.799l-1.577-.558h-1.577l-1.052-3.043.788-.828-1.182-3.747 2.628.696 2.235 1.523-.917-4.57-1.055.969-1.316-.691v-2.074l-1.575-1.67h3.022l3.154 2.635 6.043 4.299h.522l-.522-.978-3.027-2.212-4.593-4.852v-1.659l-3.55-3.047v-2.776l-.656-2.628 10.91 8.867 5.511 3.459h1.055l-.522-1.658.522-.558-1.055-.967v1.66l-7.092-6.511h1.445l.79-1.528 7.358 6.796 2.103 1.107v1.658l-.525 1.108-.529-.547v-.692l-2.231.692 1.184 2.625-.402.554-2.622-2.214-3.02-2.076-3.682-3.189h-1.841l1.579 2.492 2.891 1.809 3.021 3.179 3.674 2.501v1.239l-.781.838 1.184 1.797-.402.555v1.657h-1.833l-4.861-3.323v.692l2.363 3.743h-.789l-.521-.555h-8.675zm9.195-41.422l-3.542-3.736-8.413-6.921-1.706-2.64h1.442l5.127 4.299 2.49 2.628 1.976 1.114 3.156 3.184 1.968 1.107.522.965-.522 1.116h-1.052l-.391-.553-1.055-.563zm0-5.813l-2.626-3.186-3.418-1.8-.657-1.525-6.043-4.985v-.827l1.973.551 2.107 2.077h2.493l-1.973-1.113-2.103-2.072-3.022-2.49v-1.251l.524-.553.789-1.797 2.761 2.901-.653 1.389 1.184.688 1.572 1.671 8.538 7.479 4.076 3.183 2.625 2.771h-2.104l-.521.418.521 1.104 1.709.971 1.18 2.354-1.832-.553v1.389l-6.311-5.121-.789-1.673zm-11.69 6.929l.523.692.92.277.789-.832 1.84.412h1.18l5.916 5.265 1.577 1.8v-.138h.92l2.63 2.216 2.753 1.938-1.315 1.242-2.49-2.628-1.448-.692-4.47-.553-3.279-1.798v-1.251l-1.057-.553-3.936-3.74h-1.053l-1.579-1.658h1.579zm.524-133.107v1.105h-.523l-1.055-1.105h1.578zm2.502 79.915l-1.582-.966-2.498-2.772v-.69l1.578.69 2.502 2.772 2.493 1.246v1.799l-1.973-1.52-.52-.559zm-4.081 59.143h.525l1.053 1.108v.417l-1.578-.689v-.836zm7.1 10.251l-7.1-5.957v-1.111h1.055l.523 1.251 2.502.966v-1.105l-2.107-1.111v-1.101h1.051l3.02 2.771-1.182 1.936 2.761 1.801 2.496 2.636v.827l-1.445-.827-1.051.547-.522-.547v-.976zm-6.833-91.275h1.312l.395.969 1.051 1.663-.657.69 1.447 2.356-2.497-1.25-1.051-4.428zm3.814 46.676l-2.502-1.662-1.183-2.494.659-.691 1.443 1.526 2.629 1.659 1.446 1.662 4.067 3.604v1.242l-5.386-3.596-1.173-1.25zm-3.555-59.144l.529-.55 5.519 4.427v1.94l-6.048-4.706v-1.111zm.529 5.402l-.529-.55v-2.082l4.075 4.294h-1.577l-.789.833-1.18-1.385v-1.11zm-.529 19.947h.529l.523.416-.523.553-.529-.553v-.416zm0 13.851l1.053.554.395 1.109h-.395l-1.053-1.109v-.554zm9.199 18.836l-2.625-2.628h-1.973l.654-1.527-3.283-1.8-1.443-3.185 1.18-.554-1.709-2.634v-1.106l1.053-.554 1.445 1.66.526 1.526h1.051l1.052 1.108 4.466 3.739 2.104 2.217 1.052.551 1.968 2.079v.555h-1.052l-4.466-3.185v1.111l2.498 2.628 3.02 2.082v.965l-4.334-3.046h-1.184zm-7.227 23.133l-1.973-2.219v-1.389l7.617 6.51v1.389h-.521l-3.021-3.321-2.102-.97zm13.799-117.042l-2.106-1.108-4.072-4.293v-.553h-1.445l-2.1-2.081-5.784-4.844 2.234-1.108 2.629 2.077 1.97 1.108 2.496 2.767 2.626 1.527.53.554 4.075 3.186 2.494 2.768v3.049l-1.979-1.523-1.568-1.526zm-15.242 45.569l1.969 1.11v1.383l-1.969-1.107v-1.386zm.524 50.421h1.445l1.577 1.657v.555h-1.051l-1.972-1.382v-.83zm0 24.516l1.84.961.921 1.947h-1.315l-1.445-1.526v-1.382zm2.502-88.37h.521v-.554l-1.577-1.522h-1.051l2.107 2.076zm-1.583-5.402h.525l-.525-.415v.415zm0 30.195h.525l1.577 1.523v1.665l-.521 1.105-.928-.969-.653-3.324zm1.052 21.883l-1.052-1.523h1.052l1.577 1.108v1.523l-.526-.554-1.051-.554zm10.25-77.84l-4.075-2.08-6.701-5.817v-.689h1.057l5.122 4.292 1.438 1.108 2.104 1.662 2.498 1.801v.83h-1.442v-1.107zm21.812 69.81l-.53-1.526-.657 1.385-1.313-1.385-1.052-.556h2.497l-1.965-2.772-2.106-.966-.921-1.106-7.62-5.958-1.447-1.388-1.709.834-1.438-1.524-1.318-.691-1.312-1.524-2.764-3.741-.916-.277-1.315-.83v-.968l-1.582-1.663h2.498l-2.361-2.63-.793 3.047-1.443-1.526h-1.442l-1.051-.554 1.051-.415.526-.552h1.973l1.043-2.358 4.08 3.325 1.052 1.106.916.557 2.629 2.216 14.187 11.775 1.053.551 2.1 2.078.397 1.663.525-.554h.53v1.661l1.044.967v1.11l1.056 1.662.526 1.526.916 1.66-.522.552h-1.45v-2.212h-1.572zm-29.959 75.756h.921v-1.102l-2.493-1.389v1.389l1.572 1.102zm-1.052-134.21l1.442 1.109-.391.414-1.052-.968v-.555zm3.022 42.938l-2.495-1.662-.526-.969h.526l1.446.969h2.1v-1.521h.529l1.968 2.074v1.109h-.791l-.918-1.937-.788.828v1.109l1.052.554v.828l-1.582-.828-.521-.554zm-3.022 31.163h.526l-.526-.552v.552zm3.022 15.512l-1.579-1.526-1.182-.689.791-1.797 1.447.831 1.043 2.073 3.027 2.222 2.104 2.072h-1.052l-1.582-1.522-3.017-1.664zm5.122-109.977l-2.104-2.212-1.438-1.109-.529-.554-1.573-.969-1.447-1.665h1.184l3.805 2.634.529.554 1.053.554 1.968 1.66 1.052.554 2.622 2.08h.923l-.923-1.527-2.1-1.106v-1.106l-1.574-.555-.391-1.108-2.63-1.664v-1.245l3.55.974v-1.942l2.1.69 2.63.696 1.442 1.522v2.077h-1.048v.555l1.577 1.659.522 1.528-2.1 1.105v1.106l1.31 2.634h-.784l-2.37-1.245-5.256-4.575zm-7.092 62.748l1.447 1.662h-1.447v-1.662zm1.97 12.329l-1.579-1.525v-3.326l-.391-.969v-1.802l1.97.697 6.178 4.984v1.383l-3.291-2.074.661 1.519 1.053.556v1.11h-.53l-.522-.552h-3.549zm-.523 14.54l-.526-1.106.526-.554 1.043 1.107 1.582 1.109v.969h.916l-.522.556h-.916l-.661-1.387-1.442-.694zm-.526 53.184h1.049v.97h-1.049v-.97zm1.049-83.792v.554l-.522-.554h.522zm0 21.468l.784-.833.796.833v1.662l-1.06-.552-.52-1.11zm3.547-1.659l-2.497-2.632 1.318-.694 3.283 3.327.916.552 3.418 3.462-.789.83-3.545-3.739-2.104-1.106zm-1.967 66.067h1.307l5.256 4.846v.969l-6.562-4.709v-1.106zm.916-15.516l1.052.555v.974l-1.052-.563v-.966zm1.574-96.124v.555l1.052-2.217-1.052.554h-1.052v.554l1.052.554zm-.523 22.024v-.554h-.529l.529.554zm.523-24.239v-.556h-.522l.522.556zm.666 52.079l12.608 10.248.131.139-.397.139-.789.831v-.552l-.653.277-12.088-10.527 1.188-.555zm-.666 8.589l2.107 1.659h-1.577l-1.053-1.659h.523zm0 16.753l1.052.973h-.521l-1.053-.973h.522zm6.172 38.647l-1.045-1.107-.522 1.107h-.664l-.913-2.774-1.976-2.069h1.056l.92.965 4.466 3.602.658 1.248h-.529l-.527-.556-.924-.416zm-4.065-127.844v-.829l1.442.829v1.109l-.522-.552-.92-.557zm.391 48.342h1.574l-1.574-1.662-.391.554.391 1.108zm0 42.931l1.052 1.113h-.522l-.92-1.113h.39zm1.574 7.484l-1.965-1.526v-2.771h1.184l4.86 3.748 1.577.832v2.488l.522.967v1.111l-2.629-1.523-3.549-3.326zm-1.045-44.047l3.145 3.328v.554l-3.145-2.495v-1.387zm.523 3.882l.522.412-.522.56-.522-.56.522-.412zm1.054 15.511l-1.577-1.659v-1.524l4.067 3.183 3.156 2.081v1.661h-1.052l-3.027-3.186-1.567-.556zm-1.577 3.187v-3.188l5.124 5.4h-1.577l-1.97-2.213h-1.577zm0 37.672h1.045l1.055.421-.522.546-1.577-.546v-.421zm3.145-116.344v-.694l-2.622-2.078v1.524l2.622 1.248zm-1.312-7.478l1.312 1.383-.515.552-1.585-1.106.788-.829zm-.788 17.452h.532v-.558l-.532-.552v1.11zm0 83.932l4.604 3.602h-1.055l-3.55-2.489v-1.113zm1.055-90.859l.53.554v.414l-1.053-.414.523-.554zm1.706 113.574l-1.176-1.938-1.053-.555v-1.242l2.49 1.797 3.291 3.462-.657.832-1.052-1.107-1.843-1.249zm-1.706 16.345v.55l-.522-.55h.522zm2.495-41.969l-1.838-.553-.924-2.078h1.312l1.979 2.213v2.076l-.529-.55v-1.108zm-2.495-64.96l.53.558v.554l-.53-.554v-.558zm.53 35.461h-.53v-.552l.53.552zm-.53 59.14l.53-1.108h1.438l.527.559h1.055l1.052.967-.529.557-3.027-.974h-1.046zm1.179-36.428l3.422 3.601v1.523l-4.206-3.458.784-1.666zm.268-63.986v-.558l-.917-1.106.649-2.077 3.422 3.741-1.445.688-.661-1.247-1.048.559zm23.516 65.509l-3.151-1.661-4.075-4.294-7.224-5.125-9.592-8.863h1.179l5.525 4.294 1.049 1.107.919.552.522.557 2.1 1.524 6.047 5.4 2.63 1.799 4.071 3.601 3.155 2.493-1.314 1.524-1.841-2.908zm-23.918-23.681l.402-.554v-1.112l.521-.412 3.55 2.492v.692l-1.445.558-1.577.83-1.451-2.494zm0 71.883h.402l4.596 3.325h-1.441l-3.154-2.217-.403-1.108zm.923-106.233l1.057 1.106h-.529l-1.048-1.106h.52zm-.521 121.058l2.103 1.108v1.104l-2.103-1.104v-1.108zm.521-154.303l1.582 1.523v1.11h-.525l-1.057-1.11v-1.523zm.527 6.925h.529v-.55h-.529v.55zm.529 13.438v.554l-.529-.554h.529zm-.529 47.785h1.055v-.554h-1.055v.554zm1.055-56.928v.558l-.525-.558h.525zm1.574 52.636v1.106h-.522l-1.052-1.106h1.574zm-1.574 55.265l1.968 1.104-.394.554-1.574-1.108v-.55zm.522 12.873l1.052.562h-1.052l-.522-.562h.522zm.529-62.183l.255-.277 1.187-.275 1.049.968 3.685 2.771 5.515 3.739 1.971 1.663v2.629l.53.556-.792.827-.661-.827v-.556l-3.152-1.659-9.062-7.62v-.416l-1.447-.694.922-.829zm0-56.927h-.529v-.554l.529.554zm0 86.985h-.529v-.558l.529.558zm1.574-63.025l1.45.694v1.385l-2.107-1.385.657-.694zm.394 29.085v.56l-.526-.56h.526zm17.345 35.455l-1.051-.964-1.972-1.658-2.1-2.222-3.021-1.522-.532-1.663-4.598-3.186-1.049-1.107-3.55-2.494v-2.214l8.674 6.922 2.1 2.078 3.02 2.216.525.552 3.021 2.076 3.557 3.744v.555h-.529l-.525-.555-1.97-.558zm-13.799-32.683l1.055 1.11h-1.055v-1.11zm.526 15.514v.554l-.526.552v-1.106h.526zm.529-27.286h1.045l-.522-.554h-.522v.554zm8.929 35.321l-1.308-.553-2.501-1.251v-1.104l-1.188-.419-.916-.971-3.017-2.631h2.1l.396.555.917 1.661.135-.135h1.574l.787 1.659h1.184l2.234 2.913.922-.416v.691l1.577.971-.661.688h-1.442l-1.446-1.382.653-.276zm22.863 28.529h-.789l-.92-1.108h-1.573l-3.547-3.738h-.529l-.525-.556-1.442-1.108v-.968l-1.053-.552-2.629-2.219h-.394l-3.677-3.739-4.992-3.74-4.075-4.289h-1.577l-4.069-4.295v-1.805l4.602 3.878 1.045 1.108 1.976 1.113 2.1 2.072 4.071 2.217v1.657h1.446l.529.974 1.045.555.525.555 1.972 1.661.525.555 2.63 1.938v.689l1.968 1.114 12.09 9.97-2.493 1.662-2.24-3.601zm-30.218-79.503v-.553l-.529-.554v.554l.529.553zm10.119-3.183l-1.052-.555-4.075-3.188-.397-1.106-3.152-2.08-1.442-1.661v-1.108l.793.969.784-1.802-1.577-2.494 3.027-2.076.52-.554 1.445-.415v-1.663l-.397-1.108.397-.554h3.155l2.49 2.771 7.624 5.399 3.024 3.188v2.634l-2.367 2.633-2.103-1.525h-1.052v.827l1.445.83.658 1.25-3.422 1.799-.781 2.217-1.973-.969-1.572-1.659zm-9.594-2.217v-.419h-.525l.525.419zm3.022 8.172h.525l-1.447-2.216h-2.1l3.022 2.216zm-2.105 8.588h1.053v-.555h-1.053v.555zm0 19.807l1.585 1.107v.554h-.532l-1.053-1.108v-.553zm12.223-39.751h1.047l-1.047-1.527h-.525l-3.021-3.322-1.972-.972-2.63-2.214-1.971-1.106v.553l3.022 3.186.522 1.107h.525l4.075 2.216 1.975 2.079zm-9.593 41.827h.92l4.075 4.294h-.92l-4.075-4.294zm.523 29.086h-.522v-.555l.522.555zm7.624 12.88l-1.049-.553-.532-1.664-2.49-2.634-.792-1.663-2.363-1.52v-2.216l-.397-1.104.397-.977 2.1 1.526 1.582 1.109 1.964 1.661 1.055.555 1.052.965 4.992 3.747v.55h-1.972l-4.199-2.634h-1.446l3.021 3.188 4.07 3.462-3.545-.69-1.448-1.108zm-4.602-75.209l-1.569-1.521h-1.056l1.577 1.521h1.048zm.789-15.788l.661-.832-.92-1.106v-1.109h-2.63l2.889 3.047zm14.453 71.052l-6.043-4.29-7.227-6.373-.649-1.523-3.159-1.665 3.286-1.662.522.556-.522.552.522.554 1.048-.554 3.027 3.186 4.597 3.186 1.057 1.108 1.048.553.92 1.528 1.841 2.631.784 2.212 1.968 1.524v1.805l-3.02-3.328zm-16.158-81.581h1.446l1.972 1.526v-.968l-1.713-1.804.92-1.106 2.366-.829-.919-1.941 2.366-1.247-1.184-1.939 3.283-.971v-1.385l-.527-1.107.662-.692 2.494.97-.658-2.355 1.574-1.662v-2.216l1.582-.972.656-1.523 1.312-.691.525-1.108.529-.554v-.969l2.49-1.801v-1.943l2.104-2.212 1.445-.555.92-2.492 1.183-.693h2.499l2.1-.557h5.123l4.335-.688 4.866 4.292-2.106 4.985h-1.573l-3.554-2.495v.835l4.076 3.458v2.08l-3.813 2.77-4.335-3.461h-2.1l6.044 5.127-.917.829v1.939l-1.445.69v2.218h-2.1l-1.183 2.633-3.027 2.076 1.709 1.662-3.024.689v3.049h-1.574l-1.577-1.522h-1.445l2.497 2.63v1.112l-1.968.552-2.629-2.217h-1.053l3.415 3.601-1.836 1.801v3.741h-1.057v1.659l-.92 1.109h-1.57v2.078h-2.103l-12.219-10.113-2.364-3.323zm2.889 96.124h.529v-1.664l-1.052.553.523 1.111zm1.048-40.303h-.519l.519-.554v.554zm-.519 9.141h1.051l1.97 2.214h-.921l-2.1-2.214zm0 23.684l.519-.555h-.519v.555zm18.919 12.328l-3.159-3.184-1.307-.695-.661-1.523h-1.052l-1.573-1.523-3.024-1.659-1.052-1.666-.913-.55-1.585-1.526.789-1.663 6.574 5.405h.784v-.557l-.525-.555-.525-1.104-.917-.424-1.053-1.103-1.442-.693-.66-1.528-1.972-.964-2.1-2.222 1.047-.55h-1.968l-2.361-2.358.787-.823h1.97l.525 1.104 1.574 1.524.525 1.104h1.445l1.574 1.671 8.936 8.168.789 1.382 1.445.553 1.052 1.111-.657.689-2.365-1.242-3.411-2.637h-1.184v.559l4.072 3.74 5.911 4.293 2.231 3.186 1.052 1.108v.835l-3.02-1.666-4.596-4.017zm-14.326-96.678v-.554l-1.572-.972v.693l1.572.833zm-1.047 63.434h1.047l2.498 2.632v.555l-2.231-1.246-1.314-1.941zm6.701-63.434h.525l-3.155-3.183-2.497-1.665h-.527l3.55 3.738 2.104 1.11zm-5.127-9.142h.525v-.556l-.525.556zm1.577 109.558v.555h-.52l-.532-.555h1.052zm36.656 34.909h-.786l-2.366-1.666-3.545-3.736h-.925l-3.151-3.186-3.68-2.633.661-.557-1.049-1.659-1.183-2.635h-1.318v2.357l-3.291-2.496.797-1.526 1.968 1.526v-1.939l-6.438-4.989-6.038-1.659-7.362-5.817h1.052l.92.555 1.582-.555.521-1.111.527.559h.92l-1.447-2.075-.521.971h-.534l-.522-1.528h2.63l4.465 4.852.522.967.793-.689 7.884 6.086 3.542 3.189 3.553 2.498 6.175 5.678 1.571.967 3.027 3.324v1.527l-.79.832 1.311 1.38 1.443 3.19v1.107h-.916v-1.109zm-37.175-25.767l-.532-1.104h1.052l2.234 2.493-.789.688-.525 1.104v-.553l-.92-.97-.52-1.658zm7.35-27.699l-7.351-5.544v-1.661h.913l1.574 1.661 3.024 2.078 3.548 3.186 2.104 1.663.522 1.658.525.977h-1.048l-3.811-4.018zm-4.329 15.926l-2.108-1.663h2.629l2.236 2.355-.925 1.111-1.832-1.803zm0-30.052l.521.415h-1.055l-.522-.415h1.056zm19.83 66.483l-6.043-5.402-5.122-3.185-7.092-7.482v-.558l4.067 2.634 2.502 2.768 3.02 2.081 4.075 3.324h1.048l-2.498-2.767-2.1-1.524-3.545-3.327-2.502-1.523-2.1-2.212-1.573-1.113-2.626-2.763.785-1.669 1.841.965v.839h.522l2.632 1.66 2.495 2.628 1.573 1.107 1.972 1.526 4.729 2.909 6.569 5.959 2.496 1.383 1.574 1.661.925.558 2.622 2.075 1.971 1.11 1.187 2.49 2.754 1.386-1.307 1.392-7.358-1.111-7.493-5.819zm-19.309-28.399h.527v-.553h-.527v.553zm1.447-99.863l-.92-1.106v1.106h.92zm-.394 62.744l1.442 1.663h-1.442v-1.663zm1.442-67.037h.525l-1.051-1.107h-.522l1.048 1.107zm1.577 1.525h1.048l-.519-.415h-.529v.415zm0 96.127l1.968 2.211-.92.558-1.048-1.111v-1.658zm.529-99.867h.916l-.397-.556h-.519v.556zm1.969 103.607l.788-.693 2.231 2.351-.657.696-1.836-1.249-.526-1.105zm.526 9.409l1.573.839.529.556 3.545 2.492v1.798h-1.052l-4.596-4.846v-.839zm12.745 1.944l-3.024-2.22-.525-1.517-3.024-1.111-2.1-2.216-1.311-.689 1.049-1.108 1.839 1.381 1.447.697v1.377h1.051l2.104.696v-1.797l-2.497-1.246 1.704-1.669 1.318 1.392 1.574.827-.653 1.797-.921 1.111 3.021 3.189 2.235 1.797-.79 1.387-1.971-.971-.526-1.107zm-5.124-133.661v-.552l-2.502-2.077v2.077h1.052l1.45.552zm-1.973 113.301l1.053.968h-1.053l-.529-.968h.529zm3.02-121.886h.526l-1.574-1.663h-.525v.832l1.573.831zm-1.047 132.55v.555h-.525v-.555h.525zm3.542-120.777h.533l-1.446-1.664h-.529v.835l1.442.829zm-.914 145.99v-.555h-.529l.529.555zm1.447 1.659h.518l-1.051-1.108h-.388l.921 1.108zm3.545-163.718v-1.105h-.923l.923 1.105zm2.099 149.725v.558l-.525-.558h.525zm4.602-156.235l2.49.554h2.104v3.188h-1.574l-4.988-3.741h1.968z"/><g fill="#72D4D7"><path d="M1.116 226.641v-2.908l.552-2.179v-22.714l12.293-1.904 20.027 1.173 6.631-1.303 20.027 1.303 4.145-.876h8.562l5.249 1.313 1.104 2.473-1.104 3.347.692 3.637v20.246l-2.213 1.166h-4.694l-2.211.585h-19.754l-3.588-.876-3.452.876h-19.201l-3.867-.734-3.178.734h-12.845l-3.175-3.359zm21.407 1.026h3.73l-3.867-.581-4.697-4.947-1.52-1.171-.55-.576-8.287-5.826-.831-2.622-1.104-2.329 1.104-.438.553-2.478 1.521 2.478h.554l3.173 1.604 1.107 1.163 2.485 1.303 1.242 2.622h1.381l4.006 3.359 4.559 3.198 2.625 4.078-2.348.729h7.871l.83-2.628-2.072 1.023-1.657-.876-.69-1.602h-.551l-2.349-1.167-1.381-2.182-2.212-1.158-2.624-2.189-1.106-.586v-2.176l-.964.43h-1.105l-2.212-3.342h-.967l-1.656-1.604v-2.331l-2.487 1.31-4.005-4.074v-.588l-.414-.578.414-.583 3.317.873 1.518-.873 2.764 1.161 5.798 4.372v2.323h1.106l2.49 2.042 1.792 2.481 2.21 1.156 1.521 1.752v1.607l1.104-.584v1.303l2.625 1.021 3.313 2.765 2.625 1.896v1.604h6.349l4.009.727 12.157-1.165-5.94-1.31-3.178-2.769-2.21-1.748-2.624-2.773-1.659-.868v-2.04l1.107-.574-1.382-.729-1.245 1.304-2.346-1.164-13.813-11.207-.55-1.317 2.762.734h2.072v-1.313l3.451.876 3.041 3.195 3.177 1.756 4.834 5.098h1.1l6.911 5.677 1.657 1.023 3.174 3.495 2.212 1.012.415.582 2.763 1.896v1.166l-3.593-1.021-.689.868 1.104.592h9.528l3.18.574 1.104-1.166v-19.216l-.412-2.762-.692-4.521h-18.095l-3.867-.724-9.533.724h-13.394l-3.315-.724-9.533.724h-7.458l-7.044.586v25.335l1.108 1.169h6.491l-1.107-1.169-2.21-1.17-.967-2.178-2.207-2.324 1.104-.59 1.241-3.199 1.937 2.041 6.49 4.507 3.313 3.644 3.59.872zm-6.904-8.439l1.517-1.033h-1.517l-.554.449.554.584zm24.586 1.164l-2.488-1.321-.689-1.45-.967.876-.691-1.458-1.103-.584-.553-1.168-2.072-1.164-.552-1.021-1.66-.574-.414-.584-6.493-4.519-4.419-4.661 6.494-1.308 3.312 2.625 3.18 3.344 6.49 5.677.968.591 2.21 1.594 4.281 3.062 8.701 7.716h-8.151l-5.384-5.673zm29.971 4.502l-1.381.734-1.797-1.896-.55-2.179h-2.488l-1.24-2.91-2.212-1.023-1.52-1.752-1.658-.582v-1.164l-3.728-1.453-1.106-2.48h-2.485l-1.794-2.764-1.107-.579-.556-.584-.964-.586-1.105-2.761-1.381 1.45-1.244-1.45.418-.583h1.654l.552-.584h4.284l4.834 3.342 11.74 9.622.553.574 5.938 4.66v1.607l.964-1.021.556 2.183 1.379 2.036-3.176 1.752-1.38-1.609zm0-9.026h-1.381l-.831-2.465-1.516.719v-1.021l-2.213-2.321-1.515-.592-.554-1.012h-1.658v-1.175l-3.178-1.156-4.834-5.098v-.582l3.731.582 1.657.584 4.971.724 11.051 9.175v2.481l.55 1.742v1.74l-2.623-.574-1.657-1.751zm-6.906.586h.415l-.415-.586h-.55l.55.586zm5.248-10.778l-1.52-1.013-1.656-1.748h8.148l1.243 3.784-1.104 2.478h-1.795l-3.316-3.501zM71.166 226.641v-2.908l.553-2.179v-22.714l12.291-1.904 20.027 1.173 6.631-1.303 20.027 1.303 4.144-.876h8.565l5.247 1.313 1.104 2.473-1.104 3.347.692 3.637v20.246l-2.21 1.166h-4.697l-2.208.585h-19.754l-3.591-.876-3.454.876h-19.197l-3.869-.734-3.175.734h-12.848l-3.174-3.359zm21.41 1.026h3.727l-3.867-.581-4.694-4.947-1.522-1.171-.552-.576-8.286-5.826-.829-2.622-1.107-2.329 1.107-.438.548-2.478 1.523 2.478h.552l3.175 1.604 1.107 1.163 2.487 1.303 1.243 2.622h1.381l4.007 3.359 4.555 3.198 2.626 4.078-2.346.729h7.872l.825-2.628-2.072 1.023-1.658-.876-.688-1.602h-.553l-2.347-1.167-1.379-2.182-2.21-1.158-2.625-2.189-1.104-.586v-2.176l-.967.43h-1.106l-2.21-3.342h-.969l-1.656-1.604v-2.331l-2.488 1.31-4.006-4.074v-.588l-.41-.578.41-.583 3.316.873 1.522-.873 2.76 1.161 5.803 4.372v2.323h1.104l2.483 2.042 1.794 2.481 2.213 1.156 1.519 1.752v1.607l1.106-.584v1.303l2.625 1.021 3.313 2.765 2.624 1.896v1.604h6.351l4.009.727 12.156-1.165-5.938-1.31-3.178-2.769-2.21-1.748-2.624-2.773-1.658-.868v-2.04l1.104-.574-1.381-.729-1.243 1.304-2.348-1.164-13.814-11.207-.552-1.317 2.765.734h2.069v-1.313l3.455.876 3.038 3.195 3.177 1.756 4.834 5.098h1.104l6.909 5.677 1.654 1.023 3.175 3.495 2.215 1.012.413.582 2.763 1.896v1.166l-3.59-1.021-.692.868 1.107.592h9.53l3.175.574 1.104-1.166v-19.216l-.414-2.762-.691-4.521h-18.096l-3.865-.724-9.53.724h-13.398l-3.314-.724-9.531.724h-7.459l-7.042.586v25.335l1.106 1.169h6.49l-1.104-1.169-2.212-1.17-.969-2.178-2.205-2.324 1.104-.59 1.242-3.199 1.934 2.041 6.492 4.507 3.313 3.644 3.594.872zm-6.908-8.439l1.52-1.033h-1.52l-.554.449.554.584zm24.584 1.164l-2.484-1.321-.69-1.45-.97.876-.69-1.458-1.103-.584-.556-1.168-2.069-1.164-.553-1.021-1.66-.574-.412-.584-6.49-4.519-4.422-4.661 6.494-1.308 3.314 2.625 3.176 3.344 6.491 5.677.967.591 2.21 1.594 4.282 3.062 8.699 7.716h-8.147l-5.387-5.673zm29.976 4.502l-1.381.734-1.798-1.896-.552-2.179h-2.488l-1.241-2.91-2.209-1.023-1.519-1.752-1.66-.582v-1.164l-3.728-1.453-1.106-2.48h-2.487l-1.795-2.764-1.104-.579-.556-.584-.963-.586-1.104-2.761-1.382 1.45-1.242-1.45.413-.583h1.657l.554-.584h4.281l4.834 3.342 11.738 9.622.554.574 5.938 4.66v1.607l.969-1.021.552 2.183 1.382 2.036-3.178 1.752-1.379-1.609zm0-9.026h-1.381l-.832-2.465-1.519.719v-1.021l-2.208-2.321-1.521-.592-.553-1.012h-1.656v-1.175l-3.179-1.156-4.834-5.098v-.582l3.731.582 1.654.584 4.975.724 11.05 9.175v2.481l.55 1.742v1.74l-2.624-.574-1.653-1.751zm-6.907.586h.413l-.413-.586h-.554l.554.586zm5.247-10.778l-1.52-1.013-1.659-1.748h8.149l1.247 3.784-1.107 2.478h-1.796l-3.314-3.501zM141.213 226.641v-2.908l.554-2.179v-22.714l12.292-1.904 20.029 1.173 6.629-1.303 20.025 1.303 4.145-.876h8.563l5.249 1.313 1.104 2.473-1.104 3.347.691 3.637v20.246l-2.209 1.166h-4.698l-2.207.585h-19.75l-3.595-.876-3.453.876h-19.197l-3.869-.734-3.176.734h-12.846l-3.177-3.359zm21.409 1.026h3.729l-3.865-.581-4.699-4.947-1.519-1.171-.552-.576-8.289-5.826-.828-2.622-1.104-2.329 1.104-.438.553-2.478 1.519 2.478h.552l3.177 1.604 1.107 1.163 2.487 1.303 1.24 2.622h1.381l4.005 3.359 4.559 3.198 2.625 4.078-2.349.729h7.874l.826-2.628-2.069 1.023-1.66-.876-.688-1.602h-.552l-2.348-1.167-1.382-2.182-2.208-1.158-2.627-2.189-1.1-.586v-2.176l-.97.43h-1.104l-2.211-3.342h-.967l-1.654-1.604v-2.331l-2.489 1.31-4.007-4.074v-.588l-.412-.578.412-.583 3.316.873 1.52-.873 2.763 1.161 5.804 4.372v2.323h1.1l2.485 2.042 1.797 2.481 2.21 1.156 1.521 1.752v1.607l1.104-.584v1.303l2.624 1.021 3.314 2.765 2.624 1.896v1.604h6.356l4.005.727 12.153-1.165-5.938-1.31-3.179-2.769-2.208-1.748-2.625-2.773-1.657-.868v-2.04l1.104-.574-1.381-.729-1.242 1.304-2.348-1.164-13.814-11.207-.55-1.317 2.763.734h2.07v-1.313l3.455.876 3.037 3.195 3.176 1.756 4.834 5.098h1.104l6.909 5.677 1.654 1.023 3.18 3.495 2.208 1.012.417.582 2.76 1.896v1.166l-3.59-1.021-.691.868 1.104.592h9.532l3.175.574 1.106-1.166v-19.216l-.414-2.762-.692-4.521h-18.094l-3.865-.724-9.53.724h-13.397l-3.316-.724-9.529.724h-7.458l-7.042.586v25.335l1.103 1.169h6.492l-1.104-1.169-2.212-1.17-.965-2.178-2.21-2.324 1.104-.59 1.244-3.199 1.934 2.041 6.493 4.507 3.314 3.644 3.586.872zm-6.904-8.439l1.519-1.033h-1.519l-.554.449.554.584zm24.584 1.164l-2.486-1.321-.69-1.45-.968.876-.688-1.458-1.106-.584-.554-1.168-2.07-1.164-.552-1.021-1.66-.574-.413-.584-6.493-4.519-4.419-4.661 6.493-1.308 3.316 2.625 3.176 3.344 6.491 5.677.969.591 2.208 1.594 4.282 3.062 8.7 7.716h-8.148l-5.388-5.673zm29.974 4.502l-1.382.734-1.796-1.896-.553-2.179h-2.487l-1.243-2.91-2.21-1.023-1.517-1.752-1.66-.582v-1.164l-3.729-1.453-1.103-2.48h-2.488l-1.796-2.764-1.104-.579-.55-.584-.968-.586-1.104-2.761-1.382 1.45-1.244-1.45.415-.583h1.659l.552-.584h4.28l4.834 3.342 11.741 9.622.554.574 5.938 4.66v1.607l.968-1.021.55 2.183 1.382 2.036-3.176 1.752-1.381-1.609zm0-9.026h-1.382l-.83-2.465-1.519.719v-1.021l-2.208-2.321-1.521-.592-.552-1.012h-1.659v-1.175l-3.177-1.156-4.832-5.098v-.582l3.729.582 1.654.584 4.976.724 11.048 9.175v2.481l.551 1.742v1.74l-2.623-.574-1.655-1.751zm-6.908.586h.417l-.417-.586h-.552l.552.586zm5.246-10.778l-1.516-1.013-1.659-1.748h8.151l1.242 3.784-1.105 2.478h-1.795l-3.318-3.501zM211.263 226.641v-2.908l.554-2.179v-22.714l12.291-1.904 20.029 1.173 6.631-1.303 20.027 1.303 4.144-.876h8.562l5.248 1.313 1.107 2.473-1.107 3.347.692 3.637v20.246l-2.21 1.166h-4.697l-2.21.585h-19.751l-3.591-.876-3.453.876h-19.197l-3.869-.734-3.178.734h-12.843l-3.179-3.359zm21.409 1.026h3.729l-3.866-.581-4.698-4.947-1.518-1.171-.553-.576-8.288-5.826-.828-2.622-1.105-2.329 1.105-.438.552-2.478 1.516 2.478h.556l3.175 1.604 1.107 1.163 2.485 1.303 1.242 2.622h1.382l4.005 3.359 4.559 3.198 2.623 4.078-2.346.729h7.872l.831-2.628-2.073 1.023-1.66-.876-.687-1.602h-.554l-2.346-1.167-1.382-2.182-2.208-1.158-2.627-2.189-1.103-.586v-2.176l-.968.43h-1.107l-2.208-3.342h-.965l-1.658-1.604v-2.331l-2.488 1.31-4.004-4.074v-.588l-.415-.578.415-.583 3.313.873 1.521-.873 2.763 1.161 5.802 4.372v2.323h1.103l2.485 2.042 1.798 2.481 2.206 1.156 1.521 1.752v1.607l1.107-.584v1.303l2.622 1.021 3.316 2.765 2.622 1.896v1.604h6.357l4.004.727 12.153-1.165-5.938-1.31-3.177-2.769-2.21-1.748-2.626-2.773-1.654-.868v-2.04l1.103-.574-1.381-.729-1.245 1.304-2.347-1.164-13.81-11.207-.553-1.317 2.762.734h2.069v-1.313l3.456.876 3.036 3.195 3.179 1.756 4.833 5.098h1.108l6.905 5.677 1.654 1.023 3.18 3.495 2.208 1.012.416.582 2.76 1.896v1.166l-3.591-1.021-.692.868 1.107.592h9.531l3.174.574 1.107-1.166v-19.216l-.415-2.762-.692-4.521h-18.091l-3.866-.724-9.53.724h-13.398l-3.315-.724-9.528.724h-7.459l-7.045.586v25.335l1.103 1.169h6.493l-1.103-1.169-2.21-1.17-.966-2.178-2.213-2.324 1.106-.59 1.244-3.199 1.936 2.041 6.491 4.507 3.315 3.644 3.587.872zm-6.905-8.439l1.519-1.033h-1.519l-.554.449.554.584zm24.583 1.164l-2.485-1.321-.689-1.45-.965.876-.691-1.458-1.107-.584-.553-1.168-2.069-1.164-.554-1.021-1.655-.574-.418-.584-6.49-4.519-4.42-4.661 6.493-1.308 3.316 2.625 3.174 3.344 6.493 5.677.967.591 2.207 1.594 4.284 3.062 8.7 7.716h-8.15l-5.388-5.673zm29.974 4.502l-1.381.734-1.796-1.896-.553-2.179h-2.487l-1.242-2.91-2.211-1.023-1.516-1.752-1.659-.582v-1.164l-3.729-1.453-1.106-2.48h-2.484l-1.798-2.764-1.103-.579-.552-.584-.971-.586-1.103-2.761-1.381 1.45-1.245-1.45.415-.583h1.659l.552-.584h4.28l4.836 3.342 11.737 9.622.556.574 5.938 4.66v1.607l.968-1.021.551 2.183 1.381 2.036-3.176 1.752-1.38-1.609zm0-9.026h-1.381l-.828-2.465-1.521.719v-1.021l-2.21-2.321-1.519-.592-.555-1.012h-1.656v-1.175l-3.175-1.156-4.835-5.098v-.582l3.731.582 1.654.584 4.973.724 11.049 9.175v2.481l.554 1.742v1.74l-2.625-.574-1.656-1.751zm-6.906.586h.416l-.416-.586h-.553l.553.586zm5.248-10.778l-1.519-1.013-1.66-1.748h8.152l1.243 3.784-1.104 2.478h-1.796l-3.316-3.501zM281.313 226.641v-2.908l.551-2.179v-22.714l12.294-1.904 20.026 1.173 6.629-1.303 20.031 1.303 4.146-.876h8.562l5.249 1.313 1.103 2.473-1.103 3.347.686 3.637v20.246l-2.209 1.166h-4.698l-2.209.585h-19.746l-3.592-.876-3.456.876h-19.195l-3.87-.734-3.178.734h-12.843l-3.178-3.359zm21.41 1.026h3.729l-3.866-.581-4.697-4.947-1.521-1.171-.553-.576-8.289-5.826-.827-2.622-1.106-2.329 1.106-.438.554-2.478 1.519 2.478h.552l3.178 1.604 1.103 1.163 2.487 1.303 1.241 2.622h1.379l4.01 3.359 4.557 3.198 2.625 4.078-2.348.729h7.873l.832-2.628-2.077 1.023-1.658-.876-.688-1.602h-.552l-2.349-1.167-1.381-2.182-2.211-1.158-2.623-2.189-1.104-.586v-2.176l-.966.43h-1.109l-2.209-3.342h-.966l-1.659-1.604v-2.331l-2.485 1.31-4.004-4.074v-.588l-.415-.578.415-.583 3.315.873 1.52-.873 2.762 1.161 5.803 4.372v2.323h1.104l2.485 2.042 1.794 2.481 2.21 1.156 1.52 1.752v1.607l1.106-.584v1.303l2.622 1.021 3.314 2.765 2.631 1.896v1.604h6.353l4.002.727 12.152-1.165-5.935-1.31-3.184-2.769-2.207-1.748-2.62-2.773-1.657-.868v-2.04l1.105-.574-1.382-.729-1.247 1.304-2.346-1.164-13.811-11.207-.555-1.317 2.763.734h2.067v-1.313l3.459.876 3.041 3.195 3.172 1.756 4.838 5.098h1.104l6.904 5.677 1.659 1.023 3.174 3.495 2.208 1.012.42.582 2.763 1.896v1.166l-3.594-1.021-.695.868 1.106.592h9.537l3.174.574 1.104-1.166v-19.216l-.413-2.762-.691-4.521h-18.091l-3.867-.724-9.536.724h-13.394l-3.316-.724-9.528.724h-7.46l-7.044.586v25.335l1.104 1.169h6.493l-1.106-1.169-2.209-1.17-.965-2.178-2.213-2.324 1.106-.59 1.247-3.199 1.931 2.041 6.49 4.507 3.315 3.644 3.592.872zm-6.908-8.439l1.519-1.033h-1.519l-.55.449.55.584zm24.59 1.164l-2.489-1.321-.696-1.45-.958.876-.696-1.458-1.105-.584-.555-1.168-2.067-1.164-.552-1.021-1.656-.574-.418-.584-6.489-4.519-4.421-4.661 6.49-1.308 3.315 2.625 3.179 3.344 6.488 5.677.971.591 2.21 1.594 4.279 3.062 8.703 7.716h-8.151l-5.382-5.673zm29.966 4.502l-1.382.734-1.792-1.896-.55-2.179h-2.487l-1.248-2.91-2.209-1.023-1.517-1.752-1.657-.582v-1.164l-3.735-1.453-1.104-2.48h-2.482l-1.793-2.764-1.105-.579-.552-.584-.972-.586-1.106-2.761-1.382 1.45-1.235-1.45.408-.583h1.658l.551-.584h4.287l4.827 3.342 11.748 9.622.55.574 5.938 4.66v1.607l.971-1.021.553 2.183 1.381 2.036-3.181 1.752-1.383-1.609zm0-9.026h-1.382l-.828-2.465-1.514.719v-1.021l-2.212-2.321-1.523-.592-.554-1.012h-1.655v-1.175l-3.174-1.156-4.839-5.098v-.582l3.733.582 1.659.584 4.971.724 11.05 9.175v2.481l.557 1.742v1.74l-2.631-.574-1.658-1.751zm-6.906.586h.42l-.42-.586h-.553l.553.586zm5.251-10.778l-1.519-1.013-1.655-1.748h8.143l1.249 3.784-1.104 2.478h-1.801l-3.313-3.501zM351.362 226.641v-2.908l.552-2.179v-22.714l12.295-1.904 20.024 1.173 6.631-1.303 20.032 1.303 4.146-.876h8.562l5.249 1.313 1.101 2.473-1.101 3.347.684 3.637v20.246l-2.209 1.166h-4.695l-2.213.585h-19.746l-3.594-.876-3.457.876h-19.189l-3.869-.734-3.185.734h-12.837l-3.181-3.359zm21.409 1.026h3.724l-3.865-.581-4.694-4.947-1.514-1.171-.554-.576-8.289-5.826-.827-2.622-1.106-2.329 1.106-.438.554-2.478 1.517 2.478h.552l3.179 1.604 1.107 1.163 2.483 1.303 1.237 2.622h1.385l4.006 3.359 4.554 3.198 2.635 4.078-2.356.729h7.881l.822-2.628-2.072 1.023-1.655-.876-.69-1.602h-.552l-2.352-1.167-1.382-2.182-2.209-1.158-2.623-2.189-1.103-.586v-2.176l-.967.43h-1.108l-2.213-3.342h-.959l-1.655-1.604v-2.331l-2.49 1.31-4.007-4.074v-.588l-.412-.578.412-.583 3.313.873 1.521-.873 2.765 1.161 5.801 4.372v2.323h1.103l2.488 2.042 1.792 2.481 2.207 1.156 1.525 1.752v1.607l1.104-.584v1.303l2.621 1.021 3.316 2.765 2.626 1.896v1.604h6.353l4.002.727 12.158-1.165-5.938-1.31-3.179-2.769-2.214-1.748-2.618-2.773-1.66-.868v-2.04l1.109-.574-1.385-.729-1.243 1.304-2.346-1.164-13.813-11.207-.552-1.317 2.762.734h2.07v-1.313l3.461.876 3.032 3.195 3.172 1.756 4.842 5.098h1.105l6.901 5.677 1.661 1.023 3.169 3.495 2.216 1.012.413.582 2.764 1.896v1.166l-3.589-1.021-.695.868 1.107.592h9.529l3.176.574 1.104-1.166v-19.216l-.408-2.762-.696-4.521h-18.09l-3.87-.724-9.533.724h-13.394l-3.313-.724-9.533.724h-7.457l-7.043.586v25.335l1.105 1.169h6.487l-1.106-1.169-2.207-1.17-.964-2.178-2.21-2.324 1.104-.59 1.239-3.199 1.935 2.041 6.494 4.507 3.317 3.644 3.587.872zm-6.904-8.439l1.513-1.033h-1.513l-.548.449.548.584zm24.584 1.164l-2.484-1.321-.696-1.45-.965.876-.69-1.458-1.106-.584-.551-1.168-2.07-1.164-.552-1.021-1.658-.574-.42-.584-6.487-4.519-4.419-4.661 6.489-1.308 3.313 2.625 3.182 3.344 6.489 5.677.971.591 2.212 1.594 4.272 3.062 8.709 7.716h-8.152l-5.387-5.673zm29.969 4.502l-1.377.734-1.795-1.896-.554-2.179h-2.485l-1.245-2.91-2.209-1.023-1.521-1.752-1.653-.582v-1.164l-3.732-1.453-1.105-2.48h-2.49l-1.787-2.764-1.109-.579-.552-.584-.967-.586-1.107-2.761-1.38 1.45-1.238-1.45.406-.583h1.66l.552-.584h4.286l4.832 3.342 11.741 9.622.559.574 5.931 4.66v1.607l.969-1.021.557 2.183 1.377 2.036-3.176 1.752-1.388-1.609zm0-9.026h-1.377l-.828-2.465-1.521.719v-1.021l-2.214-2.321-1.517-.592-.554-1.012h-1.655v-1.175l-3.175-1.156-4.838-5.098v-.582l3.729.582 1.661.584 4.973.724 11.052 9.175v2.481l.55 1.742v1.74l-2.629-.574-1.657-1.751zm-6.902.586h.413l-.413-.586h-.554l.554.586zm5.244-10.778l-1.514-1.013-1.659-1.748h8.151l1.24 3.784-1.104 2.478h-1.799l-3.315-3.501zM421.413 226.641v-2.908l.547-2.179v-22.714l12.298-1.904 20.027 1.173 6.628-1.303 20.031 1.303 4.144-.876h8.562l5.25 1.313 1.101 2.473-1.101 3.347.684 3.637v20.246l-2.208 1.166h-4.694l-2.213.585h-19.743l-3.597-.876-3.454.876h-19.195l-3.875-.734-3.175.734h-12.843l-3.174-3.359zm21.412 1.026h3.723l-3.87-.581-4.697-4.947-1.509-1.171-.559-.576-8.288-5.826-.823-2.622-1.105-2.329 1.105-.438.554-2.478 1.512 2.478h.557l3.177 1.604 1.107 1.163 2.485 1.303 1.236 2.622h1.381l4.015 3.359 4.553 3.198 2.625 4.078-2.347.729h7.876l.825-2.628-2.072 1.023-1.661-.876-.684-1.602h-.554l-2.354-1.167-1.377-2.182-2.217-1.158-2.614-2.189-1.106-.586v-2.176l-.975.43h-1.101l-2.214-3.342h-.958l-1.655-1.604v-2.331l-2.49 1.31-4.014-4.074v-.588l-.407-.578.407-.583 3.316.873 1.522-.873 2.762 1.161 5.806 4.372v2.323h1.106l2.485 2.042 1.787 2.481 2.209 1.156 1.528 1.752v1.607l1.105-.584v1.303l2.613 1.021 3.32 2.765 2.629 1.896v1.604h6.355l4.001.727 12.151-1.165-5.931-1.31-3.182-2.769-2.214-1.748-2.617-2.773-1.662-.868v-2.04l1.108-.574-1.385-.729-1.245 1.304-2.342-1.164-13.813-11.207-.551-1.317 2.763.734h2.066v-1.313l3.459.876 3.037 3.195 3.172 1.756 4.839 5.098h1.101l6.909 5.677 1.658 1.023 3.169 3.495 2.211 1.012.423.582 2.764 1.896v1.166l-3.592-1.021-.695.868 1.101.592h9.537l3.171.574 1.105-1.166v-19.216l-.405-2.762-.7-4.521h-18.088l-3.863-.724-9.543.724h-13.389l-3.313-.724-9.538.724h-7.454l-7.045.586v25.335l1.107 1.169h6.485l-1.104-1.169-2.213-1.17-.957-2.178-2.212-2.324 1.106-.59 1.235-3.199 1.938 2.041 6.489 4.507 3.322 3.644 3.596.872zm-6.912-8.439l1.517-1.033h-1.517l-.55.449.55.584zm24.59 1.164l-2.487-1.321-.699-1.45-.959.876-.691-1.458-1.112-.584-.547-1.168-2.066-1.164-.554-1.021-1.658-.574-.422-.584-6.481-4.519-4.424-4.661 6.493-1.308 3.309 2.625 3.184 3.344 6.487 5.677.976.591 2.208 1.594 4.276 3.062 8.704 7.716h-8.154l-5.383-5.673zm29.966 4.502l-1.382.734-1.787-1.896-.552-2.179h-2.492l-1.245-2.91-2.208-1.023-1.518-1.752-1.658-.582v-1.164l-3.729-1.453-1.105-2.48h-2.495l-1.784-2.764-1.108-.579-.547-.584-.975-.586-1.108-2.761-1.375 1.45-1.242-1.45.413-.583h1.659l.545-.584h4.292l4.831 3.342 11.736 9.622.555.574 5.938 4.66v1.607l.972-1.021.551 2.183 1.387 2.036-3.188 1.752-1.381-1.609zm0-9.026h-1.382l-.83-2.465-1.509.719v-1.021l-2.214-2.321-1.523-.592-.55-1.012h-1.658v-1.175l-3.176-1.156-4.834-5.098v-.582l3.73.582 1.658.584 4.975.724 11.05 9.175v2.481l.547 1.742v1.74l-2.626-.574-1.658-1.751zm-6.907.586h.423l-.423-.586h-.551l.551.586zm5.245-10.778l-1.507-1.013-1.665-1.748h8.147l1.254 3.784-1.112 2.478h-1.797l-3.32-3.501z"/></g></svg>